<svg width="1200" height="40" viewBox="0 0 1200 56" fill="none" xmlns="http://www.w3.org/2000/svg">
<path d="M620.223 28.0885C620.223 28.0031 620.227 27.9131 620.227 27.8277C620.227 27.7422 620.227 27.6523 620.223 27.5668C609.281 27.3779 600.447 15.1395 600.344 0.00899531C600.259 0.00899531 600.174 0 600.089 0C600.004 0 599.919 0.00899531 599.834 0.00899531C599.731 15.1395 590.896 27.3779 579.954 27.5668C579.954 27.6523 579.95 27.7422 579.95 27.8277C579.95 27.9131 579.95 28.0031 579.954 28.0885C590.896 28.2774 599.731 40.5159 599.834 55.6463C599.919 55.6463 600.004 55.6553 600.089 55.6553C600.174 55.6553 600.259 55.6463 600.344 55.6463C600.447 40.5159 609.281 28.2774 620.223 28.0885Z" fill="#68C3C4"/>
<path d="M732.728 18.373C732.508 18.373 732.294 18.373 732.07 18.373C731.846 18.373 731.631 18.373 731.412 18.373C730.937 23.5095 700.264 27.6564 662.34 27.7059C662.34 27.7464 662.318 27.7869 662.318 27.8273C662.318 27.8678 662.336 27.9083 662.34 27.9488C700.259 27.9983 730.933 32.1452 731.412 37.2816C731.631 37.2816 731.846 37.2816 732.07 37.2816C732.294 37.2816 732.508 37.2816 732.728 37.2816C733.202 32.1452 1162.08 27.9983 1200 27.9488C1200 27.9083 801.821 27.8678 801.821 27.8273C801.821 27.7869 1200 27.7464 1200 27.7059C1162.08 27.6564 733.202 23.5095 732.728 18.373Z" fill="url(#paint0_linear_180_412)"/>
<path d="M467.272 18.373C467.492 18.373 467.707 18.373 467.93 18.373C468.154 18.373 468.369 18.373 468.588 18.373C469.063 23.5095 499.736 27.6564 537.66 27.7059C537.66 27.7464 537.682 27.7869 537.682 27.8273C537.682 27.8678 537.664 27.9083 537.66 27.9488C499.741 27.9983 469.067 32.1452 468.588 37.2816C468.369 37.2816 468.154 37.2816 467.93 37.2816C467.707 37.2816 467.492 37.2816 467.272 37.2816C466.798 32.1452 37.919 27.9983 3.77237e-08 27.9488C3.77237e-08 27.9083 398.179 27.8678 398.179 27.8273C398.179 27.7869 -0.00447524 27.7464 3.77237e-08 27.7059C37.919 27.6564 466.798 23.5095 467.272 18.373Z" fill="url(#paint1_linear_180_412)"/>
<path d="M640.399 32.0503C642.72 32.0503 644.601 30.1594 644.601 27.8269C644.601 25.4944 642.72 23.6035 640.399 23.6035C638.078 23.6035 636.196 25.4944 636.196 27.8269C636.196 30.1594 638.078 32.0503 640.399 32.0503Z" fill="#68C3C4"/>
<path d="M561.263 32.0503C563.583 32.0503 565.465 30.1594 565.465 27.8269C565.465 25.4944 563.583 23.6035 561.263 23.6035C558.942 23.6035 557.06 25.4944 557.06 27.8269C557.06 30.1594 558.942 32.0503 561.263 32.0503Z" fill="#68C3C4"/>
<defs>
<linearGradient id="paint0_linear_180_412" x1="662.323" y1="27.8273" x2="1200" y2="27.8273" gradientUnits="userSpaceOnUse">
<stop stop-color="#68C3C4"/>
<stop offset="1" stop-color="white" stop-opacity="0"/>
</linearGradient>
<linearGradient id="paint1_linear_180_412" x1="3.77237e-08" y1="27.8273" x2="537.678" y2="27.8273" gradientUnits="userSpaceOnUse">
<stop stop-color="white" stop-opacity="0"/>
<stop offset="1" stop-color="#68C3C4"/>
</linearGradient>
</defs>
</svg>
