<svg width="538" height="19" viewBox="0 0 538 19" fill="none" xmlns="http://www.w3.org/2000/svg">
<path d="M467.272 0C467.492 0 467.707 0 467.93 0C468.154 0 468.369 0 468.588 0C469.063 5.13645 499.736 9.28339 537.66 9.33286C537.66 9.37334 537.682 9.41382 537.682 9.4543C537.682 9.49478 537.664 9.53526 537.66 9.57574C499.741 9.62521 469.067 13.7722 468.588 18.9086C468.369 18.9086 468.154 18.9086 467.93 18.9086C467.707 18.9086 467.492 18.9086 467.272 18.9086C466.798 13.7722 37.919 9.62521 3.77237e-08 9.57574C3.77237e-08 9.53526 398.179 9.49478 398.179 9.4543C398.179 9.41382 -0.00447524 9.37334 3.77237e-08 9.33286C37.919 9.28339 466.798 5.13645 467.272 0Z" fill="url(#paint0_linear_293_214)" fill-opacity="0.6"/>
<defs>
<linearGradient id="paint0_linear_293_214" x1="3.77237e-08" y1="9.45429" x2="537.678" y2="9.45429" gradientUnits="userSpaceOnUse">
<stop offset="60%" stop-color="#68c3c4" />
<stop offset="100%" stop-color="#001fa9" />
</linearGradient>
</defs>
</svg>
