<svg width="110" height="102" viewBox="0 0 110 102" fill="none" xmlns="http://www.w3.org/2000/svg">
<path d="M60.0201 15.6699L24.6601 51.0199C25.2001 51.0199 25.7301 50.9699 26.2301 50.8699C26.5701 50.8099 26.8901 50.7299 27.2001 50.6299C27.3501 50.5899 27.5001 50.5299 27.6401 50.4699C27.8401 50.3999 28.0301 50.3199 28.2101 50.2199C28.3201 50.1799 28.4301 50.1199 28.5201 50.0699C30.4501 49.0399 31.7201 47.2499 31.7201 45.2199H31.7301C31.8101 47.2999 33.2101 49.0899 35.2701 50.0699C35.3801 50.1199 35.5001 50.1699 35.6201 50.2199C35.8401 50.3199 36.0701 50.3999 36.3201 50.4699C36.5001 50.5299 36.7001 50.5799 36.9001 50.6299C37.3501 50.7299 37.8201 50.7999 38.3101 50.8299L60.0701 29.0799C58.4501 27.2999 57.4601 24.9299 57.4601 22.3399C57.4601 19.7499 58.4301 17.4399 60.0201 15.6699Z" fill="white"/>
<path d="M59.9701 86.33C58.4101 84.56 57.4601 82.25 57.4601 79.71C57.4601 77.17 58.4501 74.75 60.0701 72.97L38.1501 51.05C34.5401 51.31 31.7201 53.8 31.7201 56.83C31.7201 53.62 28.5601 51.02 24.6601 51.02L59.9701 86.33Z" fill="white"/>
<path d="M43.7632 49.5847L44.4703 48.8776C45.2514 48.0965 46.5177 48.0965 47.2987 48.8776L48.0058 49.5847C48.7869 50.3657 48.7869 51.6321 48.0058 52.4131L47.2987 53.1202C46.5177 53.9013 45.2514 53.9013 44.4703 53.1202L43.7632 52.4131C42.9822 51.6321 42.9822 50.3657 43.7632 49.5847Z" fill="white"/>
<path d="M53.6901 50.89V51C58.5701 51 62.5301 52.45 62.5301 54.25C62.5301 52.95 75.6101 51.84 84.7401 51.32C84.8401 51.31 84.9401 51.3 85.0301 51.3C88.4501 51.11 91.2701 51 92.6001 51C91.3201 51 88.6201 50.9 85.3501 50.71C85.2601 50.71 85.1601 50.71 85.0601 50.7C75.9101 50.18 62.5301 49.06 62.5301 47.75C62.3801 49.49 58.4801 50.89 53.6901 50.89Z" fill="white"/>
<path d="M58.6299 101C31.0156 101 8.62988 78.6142 8.62988 51C8.62988 23.3858 31.0156 1 58.6299 1C86.2441 1 108.63 23.3858 108.63 51C108.63 78.6142 86.2441 101 58.6299 101Z" stroke="white" stroke-miterlimit="10"/>
<path d="M58.6299 96C33.7771 96 13.6299 75.8528 13.6299 51C13.6299 26.1472 33.7771 6 58.6299 6C83.4827 6 103.63 26.1472 103.63 51C103.63 75.8528 83.4827 96 58.6299 96Z" stroke="white" stroke-width="0.25" stroke-miterlimit="10"/>
<path d="M8.83994 58.0598C8.83994 54.0498 12.7999 50.7898 17.6899 50.7898C17.6899 50.7198 17.6799 50.6598 17.6799 50.5998V50.5598C16.8599 50.5598 16.0699 50.4698 15.3299 50.2998C15.0799 50.2398 14.8299 50.1798 14.5999 50.0998C14.2899 50.0098 13.9999 49.9098 13.7199 49.7898C13.5699 49.7298 13.4299 49.6698 13.2899 49.5998C10.7099 48.3798 8.94995 46.1298 8.84995 43.5298H8.83994C8.83994 46.0698 7.24994 48.3098 4.83994 49.5998C4.71994 49.6698 4.57994 49.7398 4.44994 49.7898C4.21994 49.9098 3.97994 50.0198 3.73994 50.0998C3.55994 50.1798 3.36993 50.2498 3.17993 50.2998C2.78993 50.4298 2.38994 50.5298 1.96994 50.5998C1.33994 50.7298 0.679939 50.7898 -6.10352e-05 50.7898C4.87994 50.7898 8.83994 54.0498 8.83994 58.0598Z" fill="white"/>
</svg>
