<svg width="200" height="200" viewBox="0 0 200 200" fill="none" xmlns="http://www.w3.org/2000/svg">
<path d="M126.887 113.56C130.02 118.793 133.167 124.013 136.273 129.253C138.68 133.32 138.8 137.147 136.113 141.393C130.02 151.027 124.333 160.92 118.427 170.673C117.993 171.393 117.113 172.32 116.427 172.333C109.7 172.46 102.967 172.407 95.8467 172.407C103.067 160.447 110.04 148.907 117.013 137.367C117.813 136.047 118.327 135.013 117.147 133.3C114.213 129.033 111.9 124.347 109 120.06C105.16 114.387 107.127 109.527 110.433 104.6C112.833 101.027 115.087 97.3533 117.267 93.64C117.64 93.0067 117.62 91.76 117.24 91.12C112.087 82.4867 106.8 73.9267 101.647 65.2933C100.607 63.5533 100.1 63.5333 99.0733 65.26C94.0933 73.5933 89.0867 81.9 83.9733 90.1467C82.9333 91.8267 83.0533 93.0733 84.04 94.6867C91.12 106.287 98.1 117.94 105.153 129.553C107.513 133.447 107.86 137.233 105.393 141.28C99.4933 150.953 93.7733 160.74 87.86 170.4C87.2867 171.34 85.8733 172.293 84.82 172.327C78.5 172.507 72.1733 172.413 65.1933 172.413C67.2667 168.727 69.0533 165.353 71.0267 162.093C75.98 153.893 81.08 145.787 85.92 137.52C86.5 136.533 86.2667 134.533 85.6333 133.453C80.34 124.407 74.8533 115.467 69.46 106.48C67.58 103.347 65.86 100.12 63.9467 97.0133C61.8067 93.5333 62.32 90.1667 64.28 86.9067C75.7267 67.9 87.2467 48.94 98.6467 29.9067C100.113 27.46 100.713 27.6 102.107 29.9467C113.5 49.1467 124.94 68.3133 136.493 87.42C138.76 91.1667 138.347 94.6 136.3 98.0667C133.227 103.28 130.027 108.42 126.893 113.573L126.887 113.56Z" fill="white"/>
</svg>
