<svg width="284" height="54" viewBox="0 0 284 54" fill="none" xmlns="http://www.w3.org/2000/svg">
<g clip-path="url(#clip0_462_566)">
<path d="M139.175 21.561C138.142 22.4509 136.691 22.9874 135.069 22.9874C135.043 21.0375 134.337 19.2578 133.186 17.8445C132.794 17.3603 132.349 16.9153 131.866 16.5227C130.44 15.3973 128.623 14.7299 126.661 14.7299C126.661 13.1072 127.223 11.6415 128.113 10.6077C130.558 10.8825 132.794 11.864 134.599 13.3427C135.906 13.1988 137.24 12.5706 138.339 11.4845C137.24 12.5837 136.612 13.9054 136.469 15.2141C137.92 16.9938 138.875 19.1793 139.175 21.561Z" fill="white"/>
<path d="M126.517 14.7298C126.517 14.7298 126.413 14.7298 126.347 14.7298C126.308 14.7298 126.269 14.7298 126.216 14.7298C126.151 14.7298 126.086 14.7298 126.02 14.7298C125.981 14.7298 125.942 14.7298 125.903 14.7298C124.216 14.8738 122.686 15.5281 121.43 16.5227C120.92 16.9153 120.476 17.3864 120.083 17.8837C118.946 19.3101 118.279 21.116 118.279 23.0921C116.657 23.0921 115.193 22.5293 114.16 21.6395C114.434 19.1661 115.441 16.9022 116.945 15.0832C116.788 13.8138 116.16 12.5051 115.101 11.4451C116.174 12.5051 117.481 13.1202 118.75 13.2772C120.528 11.8247 122.712 10.8693 125.105 10.5684C125.419 10.9348 125.693 11.3666 125.916 11.8247C125.955 11.9163 126.007 12.021 126.033 12.1256C126.112 12.3089 126.177 12.4921 126.229 12.6884C126.282 12.8454 126.321 13.0024 126.36 13.1595C126.465 13.6437 126.53 14.154 126.53 14.6775L126.517 14.7298Z" fill="white"/>
<path d="M136.403 31.1532C136.521 32.5011 137.162 33.9144 138.286 35.0398C137.135 33.8882 135.723 33.247 134.363 33.1423C132.781 34.3593 130.885 35.21 128.845 35.5764C127.759 36.3616 126.962 37.6571 126.661 39.2013C126.583 39.6201 126.543 40.0389 126.543 40.4838C126.543 40.4838 126.452 40.4838 126.399 40.4838C126.399 40.1828 126.386 39.8949 126.347 39.607C126.321 39.3714 126.282 39.1228 126.229 38.9003C126.177 38.6648 126.112 38.4423 126.033 38.2329C125.994 38.1282 125.955 38.0235 125.916 37.9189C125.484 36.885 124.804 36.0344 123.967 35.4717C122.11 35.0529 120.397 34.2416 118.933 33.1031C117.573 33.2077 116.16 33.849 115.036 34.9875C116.16 33.849 116.788 32.4749 116.919 31.127C115.454 29.3342 114.474 27.1487 114.173 24.7277C115.206 23.8379 116.657 23.3013 118.279 23.3013C118.318 25.3166 119.063 27.1618 120.267 28.5882C120.646 29.0463 121.077 29.4519 121.535 29.8184C122.764 30.7737 124.268 31.3756 125.903 31.5327C125.942 31.5327 125.981 31.5327 126.02 31.5327C126.033 31.5327 126.046 31.5327 126.073 31.5327C126.112 31.5327 126.164 31.5327 126.216 31.5327C126.256 31.5327 126.295 31.5327 126.334 31.5327C126.399 31.5327 126.465 31.5327 126.53 31.5327H126.648C126.779 31.5327 126.896 31.5327 127.014 31.5327C128.845 31.4542 130.519 30.7998 131.866 29.7398C132.323 29.3734 132.742 28.9677 133.121 28.5228C134.324 27.0571 135.056 25.1727 135.056 23.1443C136.678 23.1443 138.142 23.6939 139.175 24.5838C138.901 27.0702 137.907 29.3211 136.39 31.1532H136.403Z" fill="white"/>
<path d="M126.517 19.781C126.517 19.8988 126.517 20.0166 126.53 20.1213V19.781H126.517ZM126.517 19.781C126.517 19.8988 126.517 20.0166 126.53 20.1213V19.781H126.517ZM126.517 19.781C126.517 19.8988 126.517 20.0166 126.53 20.1213V19.781H126.517ZM126.517 19.781C126.517 19.8988 126.517 20.0166 126.53 20.1213V19.781H126.517ZM126.517 19.781C126.517 19.8988 126.517 20.0166 126.53 20.1213V19.781H126.517ZM126.517 19.781C126.517 19.8988 126.517 20.0166 126.53 20.1213V19.781H126.517ZM126.517 19.781C126.517 19.8988 126.517 20.0166 126.53 20.1213V19.781H126.517ZM126.517 19.781C126.517 19.8988 126.517 20.0166 126.53 20.1213V19.781H126.517ZM126.517 19.781C126.517 19.8988 126.517 20.0166 126.53 20.1213V19.781H126.517ZM126.517 19.781C126.517 19.8988 126.517 20.0166 126.53 20.1213V19.781H126.517ZM126.517 19.781C126.517 19.8988 126.517 20.0166 126.53 20.1213V19.781H126.517ZM126.517 19.781C126.517 19.8988 126.517 20.0166 126.53 20.1213V19.781H126.517ZM126.517 19.781C126.517 19.8988 126.517 20.0166 126.53 20.1213V19.781H126.517ZM126.517 19.781C126.517 19.8988 126.517 20.0166 126.53 20.1213V19.781H126.517ZM126.517 19.781C126.517 19.8988 126.517 20.0166 126.53 20.1213V19.781H126.517ZM126.517 19.781C126.517 19.8988 126.517 20.0166 126.53 20.1213V19.781H126.517ZM126.517 19.781C126.517 19.8988 126.517 20.0166 126.53 20.1213V19.781H126.517ZM126.517 19.781C126.517 19.8988 126.517 20.0166 126.53 20.1213V19.781H126.517ZM126.517 19.781C126.517 19.8988 126.517 20.0166 126.53 20.1213V19.781H126.517ZM126.517 19.781C126.517 19.8988 126.517 20.0166 126.53 20.1213V19.781H126.517ZM126.517 19.781C126.517 19.8988 126.517 20.0166 126.53 20.1213V19.781H126.517ZM126.517 19.781C126.517 19.8988 126.517 20.0166 126.53 20.1213V19.781H126.517ZM126.517 19.781C126.517 19.8988 126.517 20.0166 126.53 20.1213V19.781H126.517ZM126.517 19.781C126.517 19.8988 126.517 20.0166 126.53 20.1213V19.781H126.517ZM126.517 19.781C126.517 19.8988 126.517 20.0166 126.53 20.1213V19.781H126.517ZM126.517 19.781C126.517 19.8988 126.517 20.0166 126.53 20.1213V19.781H126.517ZM126.517 19.781C126.517 19.8988 126.517 20.0166 126.53 20.1213V19.781H126.517ZM126.517 19.781C126.517 19.8988 126.517 20.0166 126.53 20.1213V19.781H126.517ZM126.517 19.781C126.517 19.8988 126.517 20.0166 126.53 20.1213V19.781H126.517ZM126.517 19.781C126.517 19.8988 126.517 20.0166 126.53 20.1213V19.781H126.517ZM126.517 19.781C126.517 19.8988 126.517 20.0166 126.53 20.1213V19.781H126.517ZM126.517 19.781C126.517 19.8988 126.517 20.0166 126.53 20.1213V19.781H126.517ZM126.517 19.781C126.517 19.8988 126.517 20.0166 126.53 20.1213V19.781H126.517ZM126.517 19.781C126.517 19.8988 126.517 20.0166 126.53 20.1213V19.781H126.517ZM126.517 19.781C126.517 19.8988 126.517 20.0166 126.53 20.1213V19.781H126.517ZM126.517 19.781C126.517 19.8988 126.517 20.0166 126.53 20.1213V19.781H126.517ZM126.517 19.781C126.517 19.8988 126.517 20.0166 126.53 20.1213V19.781H126.517ZM126.517 19.781C126.517 19.8988 126.517 20.0166 126.53 20.1213V19.781H126.517ZM126.517 19.781C126.517 19.8988 126.517 20.0166 126.53 20.1213V19.781H126.517ZM126.517 19.781C126.517 19.8988 126.517 20.0166 126.53 20.1213V19.781H126.517ZM126.517 19.781C126.517 19.8988 126.517 20.0166 126.53 20.1213V19.781H126.517ZM126.517 19.781C126.517 19.8988 126.517 20.0166 126.53 20.1213V19.781H126.517ZM126.517 19.781C126.517 19.8988 126.517 20.0166 126.53 20.1213V19.781H126.517ZM126.517 19.781C126.517 19.8988 126.517 20.0166 126.53 20.1213V19.781H126.517ZM126.517 19.781C126.517 19.8988 126.517 20.0166 126.53 20.1213V19.781H126.517ZM126.517 19.781C126.517 19.8988 126.517 20.0166 126.53 20.1213V19.781H126.517ZM126.517 19.781C126.517 19.8988 126.517 20.0166 126.53 20.1213V19.781H126.517Z" fill="white"/>
<path d="M126.674 15.5673C126.674 15.5673 126.596 15.5673 126.556 15.5673C126.491 15.5673 126.426 15.5673 126.36 15.5673C126.321 15.5673 126.269 15.5673 126.229 15.5673C126.164 15.5673 126.099 15.5673 126.033 15.5673C125.994 15.5673 125.955 15.5673 125.916 15.5673C122.11 15.9599 119.129 19.1791 119.129 23.1051C119.129 27.031 122.097 30.2372 125.916 30.6428C125.955 30.6428 125.994 30.6428 126.033 30.6428C126.099 30.6428 126.164 30.6428 126.229 30.6428C126.269 30.6428 126.308 30.6428 126.347 30.6428C126.413 30.6428 126.478 30.6428 126.543 30.6428C126.583 30.6428 126.622 30.6428 126.661 30.6428C130.832 30.6428 134.232 27.2535 134.232 23.0658C134.232 18.8782 130.846 15.4888 126.661 15.4888L126.674 15.5673ZM126.674 25.5261C126.622 25.7224 126.569 25.9448 126.556 26.1542C126.556 26.2589 126.543 26.3767 126.543 26.4944H126.439C126.439 26.2589 126.413 26.0364 126.373 25.814C126.347 25.6569 126.308 25.513 126.256 25.369C126.203 25.212 126.138 25.0549 126.06 24.8979C126.02 24.8325 125.981 24.754 125.942 24.6885C125.366 23.7725 124.36 23.1574 123.209 23.1182C124.137 23.1182 124.987 22.7386 125.589 22.1236C125.72 21.9927 125.837 21.8488 125.942 21.7048C125.981 21.6525 126.033 21.587 126.06 21.5216C126.138 21.4038 126.203 21.273 126.256 21.1421C126.308 21.0374 126.347 20.9327 126.386 20.828C126.491 20.4878 126.556 20.1344 126.556 19.7419H126.569V20.0821C126.583 20.2915 126.635 20.514 126.687 20.7103C127.106 22.0974 128.387 23.1051 129.904 23.1051C128.387 23.1051 127.106 24.1127 126.687 25.4868L126.674 25.5261Z" fill="white"/>
<path d="M131.356 6.47228C128.766 6.47228 126.648 9.03722 126.648 12.2041C126.609 12.2041 126.57 12.2041 126.53 12.2041H126.504C126.504 11.6676 126.452 11.1572 126.334 10.6861C126.295 10.5291 126.256 10.3589 126.203 10.215C126.151 10.0187 126.086 9.8224 126.007 9.63919C125.968 9.54759 125.929 9.45599 125.89 9.36438C125.105 7.68932 123.64 6.5508 121.966 6.48537C123.614 6.48537 125.053 5.45154 125.89 3.89426C125.929 3.81574 125.981 3.72413 126.007 3.64561C126.086 3.50166 126.151 3.34463 126.203 3.18759C126.256 3.06981 126.295 2.95203 126.334 2.82117C126.413 2.57253 126.478 2.3108 126.53 2.03598C126.609 1.63031 126.648 1.19845 126.648 0.766602C126.648 3.92043 128.753 6.48537 131.356 6.48537V6.47228Z" fill="white"/>
<path d="M145.125 23.1444C144.89 23.1444 144.341 23.2229 143.7 23.38C143.687 23.38 143.674 23.38 143.648 23.38C142.183 23.7333 140.248 24.4269 140.248 25.2252C140.248 24.0605 139.607 23.1182 138.809 23.1182C138.809 23.0921 138.809 23.079 138.809 23.0528C139.581 23.0528 140.222 22.1498 140.235 21.0244C140.235 21.8358 142.222 22.5424 143.7 22.8827C143.713 22.8827 143.726 22.8827 143.739 22.8827C144.354 23.0266 144.877 23.1052 145.099 23.1052L145.125 23.1444Z" fill="white"/>
<path d="M114.016 23.0658V23.1313C113.231 23.1313 112.577 24.0735 112.577 25.2382C112.577 24.4007 110.459 23.6809 108.981 23.3407C108.968 23.3407 108.955 23.3407 108.929 23.3407C108.38 23.2229 107.922 23.1444 107.7 23.1444C107.909 23.1444 108.341 23.0789 108.877 22.9612C108.89 22.9612 108.903 22.9612 108.929 22.9612C110.407 22.6209 112.577 21.9012 112.577 21.0505C112.604 22.176 113.231 23.0789 114.016 23.0789V23.0658Z" fill="white"/>
<path d="M141.869 27.1489C141.791 27.2405 141.673 27.2798 141.555 27.2798C141.464 27.2798 141.359 27.2536 141.281 27.1751C141.268 27.162 141.242 27.1358 141.228 27.1227L140.326 25.8926C140.313 25.8664 140.3 25.8272 140.313 25.801C140.313 25.801 140.313 25.7748 140.326 25.7748C140.326 25.7748 140.339 25.7486 140.352 25.7356C140.365 25.7225 140.378 25.7356 140.392 25.7356C140.405 25.7356 140.444 25.7356 140.444 25.7356L141.738 26.4946H141.752L141.817 26.5469C141.987 26.7039 142 26.9657 141.843 27.1358L141.869 27.1489Z" fill="white"/>
<path d="M141.804 19.8465C141.804 19.8465 141.765 19.8727 141.738 19.8858L140.365 20.5401C140.365 20.5401 140.339 20.5401 140.326 20.5401C140.313 20.5401 140.261 20.5139 140.248 20.5139C140.248 20.5139 140.222 20.4747 140.222 20.4616C140.222 20.4354 140.248 20.37 140.248 20.37L141.255 19.2445L141.307 19.1791C141.372 19.1268 141.464 19.1006 141.555 19.1006C141.686 19.1006 141.804 19.1529 141.895 19.2707C142.026 19.4539 141.987 19.7156 141.817 19.8465H141.804Z" fill="white"/>
<path d="M112.525 25.8926L111.623 27.1096C111.623 27.1096 111.597 27.1619 111.571 27.175C111.492 27.2405 111.387 27.2797 111.296 27.2797C111.191 27.2797 111.074 27.2405 110.982 27.1489C110.917 27.0703 110.877 26.9656 110.877 26.874C110.877 26.7563 110.917 26.6516 111.008 26.56C111.021 26.5469 111.047 26.5338 111.074 26.5207H111.087L112.381 25.7486C112.381 25.7486 112.486 25.6963 112.525 25.7486C112.525 25.7486 112.59 25.801 112.525 25.8926Z" fill="white"/>
<path d="M112.643 20.4748L112.617 20.5271C112.59 20.5533 112.551 20.5533 112.538 20.5533C112.512 20.5533 112.512 20.5533 112.499 20.5533L111.126 19.912L111.047 19.8597C110.864 19.7288 110.825 19.4671 110.969 19.2839C111.047 19.1792 111.178 19.1138 111.309 19.1138C111.387 19.1138 111.479 19.1399 111.557 19.1923L111.623 19.2577L112.63 20.3832C112.63 20.3832 112.669 20.4486 112.669 20.4748H112.643Z" fill="white"/>
<path d="M127.354 42.5908C127.354 43.0096 127.053 43.3498 126.661 43.4152C126.622 43.4152 126.583 43.4283 126.543 43.4283H126.517C126.517 43.4283 126.4 43.4283 126.347 43.4152C126.308 43.4152 126.269 43.4022 126.229 43.376C126.164 43.3498 126.086 43.3236 126.033 43.2713C125.994 43.2451 125.942 43.2059 125.916 43.1535C125.785 43.0096 125.693 42.8133 125.693 42.5908C125.693 42.4076 125.746 42.2244 125.85 42.0935C125.863 42.0673 125.89 42.0543 125.903 42.0281C125.929 42.0019 125.955 41.9627 125.994 41.9365C125.994 41.9365 126.007 41.9365 126.02 41.9234C126.073 41.8841 126.151 41.8449 126.216 41.8187C126.256 41.8056 126.295 41.7925 126.334 41.7794C126.386 41.7794 126.452 41.7664 126.504 41.7664H126.53C126.53 41.7664 126.609 41.7664 126.648 41.7794C126.779 41.7925 126.909 41.8449 127.014 41.9365C127.079 41.9757 127.132 42.0281 127.171 42.0935C127.276 42.2375 127.341 42.4076 127.341 42.6039L127.354 42.5908Z" fill="white"/>
<path d="M50.5938 36.0476V37.5787C50.5938 37.9844 50.5153 38.2723 50.3453 38.4555C50.1753 38.6518 49.8484 38.7303 49.3253 38.7303H41.427V49.6706C41.427 50.7698 41.2047 51.555 40.7601 52.0392C40.3286 52.5103 39.5178 52.7459 38.3409 52.7459H33.2933C32.1164 52.7459 31.3187 52.5103 30.8741 52.0392C30.4426 51.555 30.2203 50.7698 30.2203 49.6706V38.7303H20.2166V49.6706C20.2166 50.4034 20.125 50.9923 19.9289 51.4503L16.5551 48.074C15.5351 47.0533 13.8875 47.0533 12.8544 48.074L9.36291 51.5681C9.12753 51.097 9.02292 50.4688 9.02292 49.6706V38.7303H1.90918C0.889201 38.7303 0.0784451 37.9451 0.0130615 36.9506V36.6888C0.0653684 35.6943 0.889201 34.896 1.90918 34.896H49.3253C49.8484 34.896 50.1753 34.9876 50.3453 35.1708C50.5153 35.354 50.5938 35.6419 50.5938 36.0476Z" fill="white"/>
<path d="M53.5622 8.78839C53.5622 8.01629 53.706 7.29654 54.0068 6.61605C54.2945 5.93555 54.6999 5.33358 55.2099 4.79703C55.7199 4.26049 56.3214 3.85481 57.0014 3.56691C57.6814 3.27901 58.4006 3.12197 59.1721 3.12197H81.9125C83.0894 3.12197 83.8871 3.35753 84.3317 3.84173C84.7763 4.31284 84.9855 5.11111 84.9855 6.21037V24.4005C84.9855 25.3165 84.8025 26.0101 84.4363 26.4943C84.0702 26.9654 83.2986 27.2141 82.1348 27.2141H68.5089C67.7766 27.2141 67.2274 27.3318 66.8612 27.5674C66.4951 27.803 66.312 28.3526 66.312 29.1901V40.1304C66.312 40.9679 66.4951 41.5568 66.8612 41.8839C67.2274 42.2111 67.7635 42.3812 68.4566 42.3812C70.3919 42.3812 72.445 42.0017 74.6026 41.2296C76.7603 40.4575 78.8918 39.463 80.9971 38.2328C83.1025 37.0027 85.0901 35.6156 86.9863 34.0583C88.8693 32.501 90.517 30.9175 91.9031 29.3079V6.19728C91.9031 5.09802 92.1254 4.31284 92.5569 3.82864C93.0016 3.35753 93.7992 3.10889 94.9761 3.10889H100.024C101.201 3.10889 101.998 3.34444 102.443 3.82864C102.888 4.29975 103.097 5.09802 103.097 6.19728V48.0738C103.097 49.1731 102.874 49.9583 102.443 50.4425C101.998 50.9136 101.201 51.1622 100.024 51.1622H94.9761C93.7992 51.1622 93.0016 50.9267 92.5569 50.4425C92.1123 49.9714 91.9031 49.1731 91.9031 48.0738V32.5795C90.3601 34.8827 88.4509 37.1597 86.1624 39.3975C83.874 41.6353 81.3894 43.6244 78.6956 45.3649C76.0018 47.1054 73.1773 48.5057 70.2088 49.5657C67.2404 50.6257 64.3113 51.1622 61.4213 51.1622C59.329 51.1622 57.7598 50.6649 56.7006 49.6835C55.6414 48.6889 55.1052 47.1054 55.1052 44.9069V26.1672C55.1052 25.2511 55.2883 24.5575 55.6545 24.0733C56.0206 23.6022 56.7921 23.3536 57.956 23.3536H71.5819C72.3142 23.3536 72.8634 23.2358 73.2296 23.0002C73.5957 22.7647 73.7788 22.2281 73.7788 21.3775V8.94543C73.7788 8.1079 73.5957 7.55827 73.2296 7.32271C72.8634 7.08716 72.3142 6.96938 71.5819 6.96938H64.4943C64.7166 7.59753 64.8212 8.1995 64.8212 8.78839C64.8212 9.56049 64.6774 10.2802 64.3766 10.9607C64.0889 11.6412 63.6705 12.2301 63.1343 12.7536C62.5982 13.2639 61.9967 13.6696 61.3167 13.9575C60.6367 14.2454 59.9175 14.4025 59.146 14.4025C58.3744 14.4025 57.6552 14.2585 56.9752 13.9575C56.2952 13.6696 55.7068 13.2639 55.1837 12.7536C54.6606 12.2432 54.2683 11.6412 53.9806 10.9607C53.693 10.2802 53.536 9.56049 53.536 8.78839H53.5622Z" fill="white"/>
<path d="M143.36 44.5274C143.87 44.5274 144.21 44.6844 144.38 44.9985C144.55 45.3126 144.628 45.8099 144.628 46.4904V49.1076C144.628 49.7881 144.55 50.2854 144.38 50.5995C144.21 50.9136 143.87 51.0706 143.36 51.0706H109.962C109.452 51.0706 109.112 50.9136 108.942 50.5995C108.772 50.2854 108.694 49.7881 108.694 49.1076V46.4904C108.694 45.8099 108.772 45.2995 108.942 44.9985C109.112 44.6844 109.439 44.5274 109.962 44.5274H143.36ZM158.019 48.0738C158.019 49.1731 157.797 49.9583 157.365 50.4425C156.921 50.9136 156.123 51.1622 154.946 51.1622H149.898C148.721 51.1622 147.924 50.9267 147.479 50.4425C147.035 49.9714 146.825 49.1731 146.825 48.0738V6.19728C146.825 5.09802 147.048 4.31284 147.479 3.82864C147.924 3.35753 148.721 3.10889 149.898 3.10889H154.946C156.123 3.10889 156.921 3.34444 157.365 3.82864C157.81 4.29975 158.019 5.09802 158.019 6.19728V48.0738Z" fill="white"/>
<path d="M201.028 27.4758C201.028 31.4279 200.348 34.8304 198.975 37.6701C197.602 40.5099 195.863 42.8785 193.758 44.7891C191.652 46.6997 189.312 48.1523 186.749 49.16C184.185 50.1676 181.727 50.822 179.386 51.1099C178.981 51.1884 178.785 51.0183 178.785 50.6126V48.5188C178.785 48.257 178.863 48.1 179.033 48.0215C179.203 47.943 179.334 47.8906 179.439 47.8514C181.086 47.4064 182.564 46.7652 183.859 45.9015C185.153 45.0378 186.252 43.9254 187.128 42.5514C188.004 41.1773 188.671 39.5415 189.128 37.6309C189.586 35.7202 189.822 33.4956 189.822 30.9306V6.19728C189.822 5.09802 190.044 4.31284 190.475 3.82864C190.92 3.35753 191.718 3.10889 192.895 3.10889H197.942C199.119 3.10889 199.917 3.34444 200.361 3.82864C200.806 4.29975 201.015 5.09802 201.015 6.19728V27.4627L201.028 27.4758ZM228.319 48.0869C228.319 49.1862 228.097 49.9714 227.666 50.4556C227.221 50.9267 226.423 51.1753 225.246 51.1753H220.199C219.022 51.1753 218.224 50.9398 217.78 50.4556C217.335 49.9844 217.126 49.1862 217.126 48.0869V26.599H208.338C207.828 26.599 207.488 26.5074 207.318 26.3242C207.148 26.141 207.07 25.8531 207.07 25.4474V23.9032C207.07 23.4975 207.148 23.2096 207.318 23.0264C207.488 22.8432 207.815 22.7516 208.338 22.7516H217.126V6.19728C217.126 5.09802 217.348 4.31284 217.78 3.82864C218.224 3.35753 219.022 3.10889 220.199 3.10889H225.246C226.423 3.10889 227.221 3.34444 227.666 3.82864C228.11 4.29975 228.319 5.09802 228.319 6.19728V48.0738V48.0869ZM210.195 43.4281C206.259 43.4281 203.055 47.3279 203.055 52.1306C202.99 52.1306 202.924 52.1306 202.872 52.1306H202.833C202.833 51.3193 202.741 50.5472 202.571 49.8143C202.506 49.5657 202.454 49.317 202.375 49.0946C202.284 48.7936 202.192 48.5057 202.074 48.2309C202.009 48.0869 201.957 47.943 201.891 47.8121C200.688 45.2733 198.478 43.5459 195.928 43.4412C198.426 43.4412 200.623 41.8709 201.891 39.5022C201.957 39.3844 202.035 39.2405 202.074 39.1227C202.192 38.9002 202.297 38.6647 202.375 38.4291C202.454 38.2459 202.519 38.0627 202.571 37.8795C202.702 37.5 202.794 37.1074 202.872 36.6886C203.003 36.0736 203.055 35.4193 203.055 34.7518C203.055 39.5546 206.259 43.4412 210.195 43.4412V43.4281Z" fill="white"/>
<path d="M258.527 3.12197C259.037 3.12197 259.377 3.21358 259.547 3.39679C259.717 3.58 259.795 3.8679 259.795 4.27358V5.81778C259.795 6.22345 259.717 6.51136 259.547 6.69457C259.377 6.87778 259.05 6.96938 258.527 6.96938H252.864V33.7311C252.864 35.6679 252.577 37.4346 252.014 39.0049C251.452 40.5884 250.681 41.9886 249.713 43.2318C248.745 44.4751 247.634 45.5612 246.391 46.4773C245.149 47.3933 243.841 48.1654 242.468 48.8067C241.095 49.4479 239.709 49.9583 238.323 50.3509C236.937 50.7304 235.616 50.979 234.374 51.0968C234.269 51.0968 234.112 51.0575 233.929 50.9921C233.746 50.9136 233.655 50.7042 233.655 50.3378V48.5842C233.655 48.2963 233.733 48.1131 233.877 48.0346C234.021 47.956 234.152 47.9037 234.256 47.8644C237.002 47.0923 238.938 45.679 240.049 43.6114C241.161 41.5437 241.723 38.7956 241.723 35.3931V6.96938H236.061C235.551 6.96938 235.211 6.87778 235.041 6.69457C234.871 6.51136 234.792 6.22345 234.792 5.81778V4.27358C234.792 3.8679 234.871 3.58 235.041 3.39679C235.211 3.21358 235.538 3.12197 236.061 3.12197H258.527ZM272.244 23.2881H273.944V6.19728C273.944 5.09802 274.166 4.31284 274.598 3.82864C275.042 3.35753 275.84 3.10889 277.017 3.10889H280.914C282.091 3.10889 282.888 3.34444 283.333 3.82864C283.778 4.29975 283.987 5.09802 283.987 6.19728V48.0738C283.987 49.1731 283.765 49.9583 283.333 50.4425C282.888 50.9136 282.091 51.1622 280.914 51.1622H277.017C275.84 51.1622 275.042 50.9267 274.598 50.4425C274.153 49.9714 273.944 49.1731 273.944 48.0738V27.1356H272.244V48.0738C272.244 49.1731 272.022 49.9583 271.59 50.4425C271.146 50.9136 270.348 51.1622 269.171 51.1622H265.274C264.097 51.1622 263.3 50.9267 262.855 50.4425C262.41 49.9714 262.201 49.1731 262.201 48.0738V6.19728C262.201 5.09802 262.423 4.31284 262.855 3.82864C263.3 3.35753 264.097 3.10889 265.274 3.10889H269.171C270.348 3.10889 271.146 3.34444 271.59 3.82864C272.035 4.29975 272.244 5.09802 272.244 6.19728V23.2881Z" fill="white"/>
<path d="M13.8485 10.3457V10.8692C13.8353 10.7906 13.8221 10.699 13.8221 10.6074C13.8221 10.5158 13.8353 10.4242 13.8485 10.3457Z" fill="white"/>
<path d="M13.8485 20.6709V21.1944C13.8353 21.1158 13.8221 21.0242 13.8221 20.9326C13.8221 20.841 13.8353 20.7494 13.8485 20.6709Z" fill="white"/>
<path d="M15.2736 22.2283C15.2736 22.2283 15.1821 22.2414 15.1298 22.2414C14.9859 22.2414 14.8421 22.2152 14.7113 22.1628C14.9075 22.189 15.0906 22.2152 15.2736 22.2283Z" fill="white"/>
<path d="M13.8221 10.6074C13.8221 10.699 13.8353 10.7906 13.8485 10.8692V10.3457C13.8353 10.4242 13.8221 10.5158 13.8221 10.6074Z" fill="white"/>
<path d="M24.6365 32.4225H3.92303C3.20381 32.4225 2.61536 31.8336 2.61536 31.1139V4.98027C2.61536 4.26052 3.20381 3.67163 3.92303 3.67163H5.34839V29.2818L6.43376 29.5042C10.4352 30.3287 14.1752 30.682 17.1697 30.9568C20.7658 31.2971 23.6427 31.5719 24.6365 32.4225Z" fill="white"/>
<path d="M47.9915 4.98027V31.1139C47.9915 31.8336 47.4031 32.4225 46.6839 32.4225H26.3496C27.3434 31.5719 30.2072 31.2971 33.7772 30.9568C36.7848 30.682 40.5247 30.3287 44.5262 29.5042L45.6116 29.2818V3.67163H46.6839C47.4031 3.67163 47.9915 4.26052 47.9915 4.98027Z" fill="white"/>
<path d="M13.8485 10.3457V10.8692C13.8353 10.7906 13.8221 10.699 13.8221 10.6074C13.8221 10.5158 13.8353 10.4242 13.8485 10.3457Z" fill="white"/>
<path d="M13.8485 20.6709V21.1944C13.8353 21.1158 13.8221 21.0242 13.8221 20.9326C13.8221 20.841 13.8353 20.7494 13.8485 20.6709Z" fill="white"/>
<path d="M15.2736 22.2283C15.2736 22.2283 15.1821 22.2414 15.1298 22.2414C14.9859 22.2414 14.8421 22.2152 14.7113 22.1628C14.9075 22.189 15.0906 22.2152 15.2736 22.2283Z" fill="white"/>
<path d="M13.8221 10.6074C13.8221 10.699 13.8352 10.7906 13.8483 10.8692V10.3457C13.8352 10.4242 13.8221 10.5158 13.8221 10.6074ZM13.8221 20.9326C13.8221 21.0242 13.8352 21.1158 13.8483 21.1943V20.6709C13.8352 20.7494 13.8221 20.841 13.8221 20.9326ZM14.7113 22.1627C14.8421 22.2151 14.9859 22.2413 15.1298 22.2413C15.1821 22.2413 15.2344 22.2413 15.2736 22.2282C15.0906 22.2151 14.9075 22.1889 14.7113 22.1627Z" fill="#231F20"/>
<path d="M13.8485 10.3457V10.8692C13.8353 10.7906 13.8221 10.699 13.8221 10.6074C13.8221 10.5158 13.8353 10.4242 13.8485 10.3457Z" fill="#231F20"/>
<path d="M13.8485 20.6709V21.1944C13.8353 21.1158 13.8221 21.0242 13.8221 20.9326C13.8221 20.841 13.8353 20.7494 13.8485 20.6709Z" fill="#231F20"/>
<path d="M15.2736 22.2283C15.2736 22.2283 15.1821 22.2414 15.1298 22.2414C14.9859 22.2414 14.8421 22.2152 14.7113 22.1628C14.9075 22.189 15.0906 22.2152 15.2736 22.2283Z" fill="#231F20"/>
<path d="M43.7285 0.22998C43.5193 0.26924 43.297 0.308499 43.0878 0.347758C33.9733 2.06208 26.7027 1.64331 25.4865 3.64554C24.2573 1.63023 16.8559 2.06208 7.62374 0.295413C7.58451 0.282326 7.54528 0.26924 7.49297 0.26924C7.44067 0.256153 7.37528 0.256153 7.3099 0.256153C6.59068 0.256153 6.00223 0.845042 6.00223 1.5648V28.7453C6.1853 28.7845 6.36838 28.8238 6.56453 28.8631C15.9144 30.7868 23.6166 30.1063 25.3035 32.1739C25.3819 32.2655 25.4342 32.3441 25.4865 32.4226C25.5258 32.3441 25.5781 32.2655 25.6565 32.1739C26.4934 31.1401 28.8472 30.7999 32.1426 30.4596C35.451 30.1324 39.714 29.8315 44.3955 28.8631C44.5785 28.8238 44.7747 28.7845 44.9578 28.7453V1.52554C44.9578 0.831956 44.4085 0.256153 43.7285 0.22998ZM37.1117 21.6394C36.9679 21.8618 36.7587 22.032 36.5233 22.1366C36.2748 22.1628 36.0133 22.189 35.7648 22.2152H35.7518C34.7971 22.3199 33.8687 22.4115 32.9795 22.49C30.1811 22.7517 27.6703 23.0004 25.4735 23.5892C23.2896 23.0004 20.7658 22.7517 17.9805 22.49C17.1174 22.4115 16.2151 22.3329 15.2867 22.2283C15.2867 22.2283 15.1952 22.2413 15.1428 22.2413C14.999 22.2413 14.8552 22.2152 14.7244 22.1628C14.2929 22.0189 13.9659 21.6524 13.8744 21.1944C13.8613 21.1159 13.8483 21.0243 13.8483 20.9327C13.8483 20.8411 13.8613 20.7495 13.8744 20.671V10.8692C13.8613 10.7907 13.8483 10.6991 13.8483 10.6075C13.8483 10.5159 13.8613 10.4243 13.8744 10.3458C13.9921 9.74381 14.5021 9.29887 15.1428 9.29887H15.1559C15.2475 9.29887 15.339 9.31196 15.4305 9.32504C15.8228 9.3643 16.189 9.40356 16.5551 9.44282C17.3659 9.53442 18.2813 9.63912 19.1182 9.73072H19.1705C19.4059 9.75689 19.6151 9.79615 19.8243 9.82233C20.0074 9.90084 20.1643 10.0186 20.2951 10.1626C20.3866 10.2673 20.4651 10.385 20.5174 10.5159C20.5174 10.529 20.5305 10.529 20.5305 10.5421L21.132 11.5236L22.4004 13.5912L23.1458 14.8213C23.1458 14.8213 23.1458 14.8344 23.172 14.8475C23.7735 15.4364 24.5842 15.8028 25.4865 15.8028C26.4934 15.8028 27.3827 15.3579 27.9842 14.6512C27.9842 14.6512 27.9973 14.625 28.0103 14.612L28.4942 13.8137C28.4942 13.8137 28.5072 13.7875 28.5072 13.7744L29.8803 11.5236L30.4295 10.6206H30.4426L30.7303 10.1364C30.8872 9.97936 31.0834 9.87467 31.3057 9.80924H31.3187C31.4234 9.79615 31.541 9.76998 31.6587 9.75689H31.7241C32.6003 9.6522 33.581 9.54751 34.4572 9.44282C34.7971 9.41665 35.1502 9.37739 35.5164 9.33813H35.5425C35.6341 9.31196 35.7256 9.29887 35.8302 9.29887H35.8564C36.5625 9.31196 37.1379 9.88776 37.1379 10.6075V21.6394H37.1117Z" fill="white"/>
<path d="M262.253 44.5276C258.317 44.5276 255.114 48.4274 255.114 53.2301C255.048 53.2301 254.983 53.2301 254.93 53.2301H254.891C254.891 52.4187 254.8 51.6466 254.63 50.9138C254.564 50.6651 254.512 50.4165 254.434 50.194C254.342 49.893 254.25 49.6051 254.133 49.3303C254.067 49.1864 254.015 49.0424 253.95 48.9116C252.747 46.3728 250.537 44.6454 247.987 44.5407C250.484 44.5407 252.681 42.9703 253.95 40.6017C254.015 40.4839 254.094 40.34 254.133 40.2222C254.25 39.9997 254.355 39.7642 254.434 39.5286C254.512 39.3454 254.577 39.1622 254.63 38.979C254.76 38.5995 254.852 38.2069 254.93 37.7881C255.061 37.173 255.114 36.5187 255.114 35.8513C255.114 40.654 258.317 44.5407 262.253 44.5407V44.5276Z" fill="white"/>
</g>
<defs>
<clipPath id="clip0_462_566">
<rect width="284" height="53" fill="white" transform="translate(0 0.22998)"/>
</clipPath>
</defs>
</svg>
