<svg width="44" height="47" viewBox="0 0 44 47" fill="none" xmlns="http://www.w3.org/2000/svg">
<path d="M1 24.6655C1 13.0483 10.402 3.63076 22 3.63076C33.598 3.63076 43 13.0483 43 24.6655C43 36.2826 33.598 45.7002 22 45.7002C10.402 45.7002 1 36.2826 1 24.6655Z" stroke="#68C3C4" stroke-miterlimit="10"/>
<path d="M3.09999 24.6654C3.09999 14.21 11.5618 5.73419 22 5.73419C32.4382 5.73419 40.9 14.21 40.9 24.6654C40.9 35.1209 32.4382 43.5967 22 43.5967C11.5618 43.5967 3.09999 35.1209 3.09999 24.6654Z" stroke="#68C3C4" stroke-width="0.25" stroke-miterlimit="10"/>
<path d="M19.0349 3.71923C20.7191 3.71923 22.0883 5.38519 22.0883 7.44238C22.1177 7.44238 22.1429 7.43817 22.1681 7.43817L22.1849 7.43817C22.1849 7.0932 22.2227 6.76086 22.2941 6.44954C22.3193 6.34437 22.3445 6.2392 22.3781 6.14244C22.4159 6.01202 22.4579 5.89002 22.5083 5.77223C22.5335 5.70912 22.5587 5.65022 22.5881 5.59132C23.1005 4.50593 24.0455 3.76552 25.1375 3.72345L25.1375 3.71923C24.0707 3.71923 23.1299 3.05033 22.5881 2.03646C22.5587 1.98597 22.5293 1.92708 22.5083 1.87239C22.4579 1.77563 22.4117 1.67466 22.3781 1.5737C22.3445 1.49797 22.3151 1.41803 22.2941 1.3381C22.2395 1.17403 22.1975 1.00576 22.1681 0.829066C22.1135 0.564029 22.0883 0.28637 22.0883 0.000297403C22.0883 2.05329 20.7191 3.71923 19.0349 3.71923Z" fill="#68C3C4"/>
<path d="M33.3984 19.2411L22.1384 8.10038C22.1384 8.27052 22.1543 8.4375 22.1862 8.59503C22.2053 8.70216 22.2308 8.80298 22.2626 8.90065C22.2753 8.94791 22.2945 8.99517 22.3136 9.03928C22.3359 9.10229 22.3614 9.16215 22.3932 9.21887C22.4059 9.25352 22.4251 9.28818 22.441 9.31653C22.7691 9.92461 23.3392 10.3247 23.9859 10.3247L23.9859 10.3279C23.3233 10.3531 22.7531 10.7942 22.441 11.4432C22.4251 11.4779 22.4091 11.5157 22.3932 11.5535C22.3614 11.6228 22.3359 11.6953 22.3136 11.774C22.2945 11.8308 22.2785 11.8938 22.2626 11.9568C22.2308 12.0986 22.2085 12.2466 22.1989 12.401L29.1269 19.2568C29.6939 18.7464 30.4488 18.4345 31.2738 18.4345C32.0988 18.4345 32.8346 18.7401 33.3984 19.2411Z" fill="#68C3C4"/>
<path d="M10.8972 19.2253C11.461 18.7338 12.1968 18.4345 13.0059 18.4345C13.815 18.4345 14.5858 18.7464 15.1528 19.2568L22.135 12.3506C22.0522 11.2132 21.259 10.3247 20.2939 10.3247C21.3164 10.3247 22.1445 9.32914 22.1445 8.10038L10.8972 19.2253Z" fill="#68C3C4"/>
<path d="M22.5977 14.1188L22.823 14.3415C23.0718 14.5876 23.0718 14.9866 22.823 15.2327L22.5977 15.4555C22.3489 15.7015 21.9456 15.7015 21.6968 15.4555L21.4716 15.2327C21.2228 14.9866 21.2228 14.5876 21.4716 14.3415L21.6968 14.1188C21.9456 13.8727 22.3489 13.8727 22.5977 14.1188Z" fill="#68C3C4"/>
<path d="M22.1825 16.3006L22.1074 16.3006C22.1074 17.7805 21.1171 18.9814 19.8879 18.9814C20.7757 18.9814 21.5337 22.9481 21.8889 25.7169C21.8957 25.7473 21.9025 25.7776 21.9025 25.8049C22.0323 26.842 22.1074 27.6972 22.1074 28.1006C22.1074 27.7124 22.1757 26.8936 22.3054 25.9019C22.3054 25.8746 22.3054 25.8443 22.3123 25.814C22.6674 23.0391 23.4323 18.9814 24.3269 18.9814C23.1386 18.9359 22.1825 17.7532 22.1825 16.3006Z" fill="#68C3C4"/>
<path d="M13.3674 28.9521L13.4689 28.8125H16.0969C17.6795 28.8125 18.5513 28.8379 18.7121 28.8887C18.8814 28.9395 18.966 29.2188 18.966 29.7266C18.966 30.2174 18.9237 30.5052 18.8391 30.5898C18.7629 30.6745 18.4963 30.7253 18.0392 30.7422C17.8107 30.7591 17.6288 30.776 17.4933 30.793C17.3579 30.8099 17.2775 30.8311 17.2521 30.8564C17.2014 30.8988 17.1717 31.1992 17.1633 31.7578C17.1548 32.3079 17.1506 33.7848 17.1506 36.1885V41.4443L16.8332 41.8125L15.3605 41.7871L15.0939 41.3682V30.9326L14.9543 30.8438C14.9035 30.8099 14.8231 30.7845 14.7131 30.7676C14.603 30.7507 14.438 30.7422 14.218 30.7422C13.7779 30.7422 13.5113 30.6956 13.4182 30.6025C13.3251 30.501 13.2785 30.2174 13.2785 29.752C13.2785 29.498 13.2827 29.3161 13.2912 29.2061C13.3081 29.0876 13.3335 29.0029 13.3674 28.9521ZM21.0734 28.9268C21.1581 28.8844 21.3316 28.8548 21.5939 28.8379C21.8648 28.8125 22.1525 28.7998 22.4572 28.7998C22.7619 28.7998 23.0497 28.8125 23.3205 28.8379C23.5913 28.8548 23.7691 28.8887 23.8537 28.9395C24.006 29.0156 24.2261 29.223 24.5139 29.5615C24.8101 29.8916 25.0132 30.1667 25.1232 30.3867L25.2756 30.7168V35.3125C25.2756 37.9785 25.2544 39.4766 25.2121 39.8066C25.1698 40.1283 24.9497 40.5303 24.5519 41.0127C24.2219 41.4105 23.968 41.6432 23.7902 41.7109C23.621 41.7786 23.1978 41.8125 22.5207 41.8125C21.8605 41.8125 21.4416 41.7786 21.2639 41.7109C21.0946 41.6432 20.8238 41.402 20.4514 40.9873C20.0282 40.5218 19.7954 40.124 19.7531 39.7939C19.7108 39.4554 19.6939 37.9277 19.7023 35.2109L19.715 30.5391L19.8547 30.3105C19.9732 30.1074 20.1763 29.8451 20.4641 29.5234C20.7518 29.1934 20.9549 28.9945 21.0734 28.9268ZM22.8889 30.7422C22.7027 30.5221 22.5672 30.4121 22.4826 30.4121C22.398 30.4036 22.2752 30.4967 22.1144 30.6914C21.8775 30.9622 21.7463 31.2458 21.7209 31.542C21.6955 31.8382 21.6828 33.0951 21.6828 35.3125V39.3115L21.8605 39.5908C22.0975 39.9378 22.2752 40.1283 22.3937 40.1621C22.5207 40.1875 22.69 40.0775 22.9016 39.832C23.1131 39.5866 23.2316 39.2904 23.257 38.9434C23.2909 38.5964 23.3078 37.3818 23.3078 35.2998C23.3078 33.2178 23.2909 32.0075 23.257 31.6689C23.2316 31.3219 23.1089 31.013 22.8889 30.7422ZM26.2023 28.8887C26.2362 28.8633 26.342 28.8464 26.5197 28.8379C26.6974 28.821 26.9598 28.8125 27.3068 28.8125C27.9754 28.8125 28.4113 28.8887 28.6144 29.041C28.8176 29.1849 29.4142 29.8662 30.4045 31.085C31.3185 32.2021 31.856 32.875 32.0168 33.1035C32.1776 33.3236 32.258 33.4971 32.258 33.624C32.258 33.7764 32.1734 33.9668 32.0041 34.1953C31.8433 34.4238 31.2381 35.1855 30.1887 36.4805C28.9699 37.987 28.2971 38.8503 28.1701 39.0703C28.0516 39.2819 27.9881 39.7305 27.9797 40.416C27.9627 41.1439 27.9204 41.5586 27.8527 41.6602C27.785 41.7617 27.5099 41.8125 27.0275 41.8125C26.4351 41.8125 26.1092 41.639 26.05 41.292C25.9992 40.945 25.9738 38.9518 25.9738 35.3125C25.9738 32.1725 25.9823 30.3402 25.9992 29.8154C26.0161 29.2907 26.0838 28.9818 26.2023 28.8887ZM29.0842 32.6465C28.5679 32.0117 28.2632 31.6436 28.1701 31.542C28.077 31.4404 28.022 31.4193 28.0051 31.4785C27.9881 31.5124 27.9797 31.762 27.9797 32.2275C27.9712 32.7015 27.9712 33.2093 27.9797 33.751C27.9881 34.2926 28.0008 34.792 28.0178 35.249C28.0262 35.6976 28.0389 35.9219 28.0558 35.9219C28.0728 35.9303 28.1574 35.8457 28.3098 35.668C28.4706 35.4902 28.6441 35.2871 28.8303 35.0586C29.0249 34.8216 29.2111 34.5931 29.3889 34.373C29.5666 34.153 29.6808 33.9964 29.7316 33.9033C29.8078 33.7848 29.812 33.6663 29.7443 33.5479C29.6851 33.4209 29.465 33.1204 29.0842 32.6465Z" fill="#68C3C4"/>
</svg>
