<svg width="110" height="102" viewBox="0 0 110 102" fill="none" xmlns="http://www.w3.org/2000/svg">
<path d="M49.7299 15.78L85.0899 51.13C84.5499 51.13 84.0199 51.08 83.5199 50.98C83.1799 50.92 82.8599 50.84 82.5499 50.74C82.3999 50.7 82.2499 50.64 82.1099 50.58C81.9099 50.51 81.7199 50.43 81.5399 50.33C81.4299 50.29 81.3199 50.23 81.2299 50.18C79.2999 49.15 78.0299 47.36 78.0299 45.33H78.0199C77.9399 47.41 76.5399 49.2 74.4799 50.18C74.3699 50.23 74.2499 50.28 74.1299 50.33C73.9099 50.43 73.6799 50.51 73.4299 50.58C73.2499 50.64 73.0499 50.69 72.8499 50.74C72.3999 50.84 71.9299 50.91 71.4399 50.94L49.6799 29.19C51.2999 27.41 52.2899 25.04 52.2899 22.45C52.2899 19.86 51.3199 17.55 49.7299 15.78Z" fill="white"/>
<path d="M49.7799 86.4401C51.3399 84.6701 52.2899 82.3601 52.2899 79.8201C52.2899 77.2801 51.2999 74.8601 49.6799 73.0801L71.5999 51.1601C75.2099 51.4201 78.0299 53.9101 78.0299 56.9401C78.0299 53.7301 81.1899 51.1301 85.0899 51.1301L49.7799 86.4401Z" fill="white"/>
<path d="M65.9868 49.6948L65.2797 48.9877C64.4986 48.2067 63.2323 48.2067 62.4513 48.9877L61.7442 49.6948C60.9631 50.4759 60.9631 51.7422 61.7442 52.5232L62.4513 53.2303C63.2323 54.0114 64.4986 54.0114 65.2797 53.2303L65.9868 52.5232C66.7678 51.7422 66.7678 50.4759 65.9868 49.6948Z" fill="white"/>
<path d="M56.0599 51.0001V51.1101C51.1799 51.1101 47.2199 52.5601 47.2199 54.3601C47.2199 53.0601 34.1399 51.9501 25.0099 51.4301C24.9099 51.4201 24.8099 51.4101 24.7199 51.4101C21.2999 51.2201 18.4799 51.1101 17.1499 51.1101C18.4299 51.1101 21.1299 51.0101 24.3999 50.8201C24.4899 50.8201 24.5899 50.8201 24.6899 50.8101C33.8399 50.2901 47.2199 49.1701 47.2199 47.8601C47.3699 49.6001 51.2699 51.0001 56.0599 51.0001Z" fill="white"/>
<path d="M51.1201 101.11C78.7344 101.11 101.12 78.7243 101.12 51.1101C101.12 23.4959 78.7344 1.11011 51.1201 1.11011C23.5059 1.11011 1.12012 23.4959 1.12012 51.1101C1.12012 78.7243 23.5059 101.11 51.1201 101.11Z" stroke="white" stroke-miterlimit="10"/>
<path d="M51.1201 96.1101C75.9729 96.1101 96.1201 75.9629 96.1201 51.1101C96.1201 26.2573 75.9729 6.11011 51.1201 6.11011C26.2673 6.11011 6.12012 26.2573 6.12012 51.1101C6.12012 75.9629 26.2673 96.1101 51.1201 96.1101Z" stroke="white" stroke-width="0.25" stroke-miterlimit="10"/>
<path d="M100.91 58.1699C100.91 54.1599 96.9501 50.8999 92.0601 50.8999C92.0601 50.8299 92.0701 50.7699 92.0701 50.7099V50.6699C92.8901 50.6699 93.6801 50.5799 94.4201 50.4099C94.6701 50.3499 94.9201 50.2899 95.1501 50.2099C95.4601 50.1199 95.7501 50.0199 96.0301 49.8999C96.1801 49.8399 96.3201 49.7799 96.4601 49.7099C99.0401 48.4899 100.8 46.2399 100.9 43.6399H100.91C100.91 46.1799 102.5 48.4199 104.91 49.7099C105.03 49.7799 105.17 49.8499 105.3 49.8999C105.53 50.0199 105.77 50.1299 106.01 50.2099C106.19 50.2899 106.38 50.3599 106.57 50.4099C106.96 50.5399 107.36 50.6399 107.78 50.7099C108.41 50.8399 109.07 50.8999 109.75 50.8999C104.87 50.8999 100.91 54.1599 100.91 58.1699Z" fill="white"/>
</svg>
