<svg width="155" height="25" viewBox="0 0 155 25" fill="none" xmlns="http://www.w3.org/2000/svg">
<path d="M1.53906 0.570312C1.55469 0.554688 1.77344 0.539062 2.19531 0.523438C2.61719 0.507813 3.10938 0.5 3.67188 0.5C5 0.5 5.85156 0.59375 6.22656 0.78125C6.61719 0.953125 7.53125 1.67969 8.96875 2.96094C10.9219 4.71094 11.8984 5.76562 11.8984 6.125C11.8984 6.48438 10.9297 7.58594 8.99219 9.42969C8.03906 10.3516 7.30469 11.0703 6.78906 11.5859C6.28906 12.1016 6.03906 12.3984 6.03906 12.4766C6.03906 12.5391 6.24219 12.7891 6.64844 13.2266C7.05469 13.6484 7.625 14.2188 8.35938 14.9375C10.375 16.8906 11.4766 17.9766 11.6641 18.1953C11.8672 18.4141 11.9531 18.6641 11.9219 18.9453C11.9062 19.1797 11.7812 19.4219 11.5469 19.6719C11.3281 19.9062 10.5859 20.5938 9.32031 21.7344C7.72656 23.2031 6.73438 24.0312 6.34375 24.2188C5.95312 24.4062 5.0625 24.5 3.67188 24.5H1.46875V24.1484C1.46875 23.9766 1.60156 23.75 1.86719 23.4688C2.14844 23.1875 2.875 22.5234 4.04688 21.4766C5.67188 20.0234 6.53906 19.1797 6.64844 18.9453C6.75781 18.7109 6.47656 18.2734 5.80469 17.6328C5.57031 17.4297 5.17969 17.0625 4.63281 16.5312C4.08594 16 3.53906 15.4688 2.99219 14.9375L1.02344 12.9922V11.8906L3.85938 9.19531C4.64062 8.46094 5.3125 7.82031 5.875 7.27344C6.4375 6.71094 6.72656 6.41406 6.74219 6.38281C6.78906 6.24219 6.64844 6.00781 6.32031 5.67969C6.00781 5.33594 5.24219 4.61719 4.02344 3.52344C2.74219 2.38281 1.96094 1.64844 1.67969 1.32031C1.41406 0.992188 1.36719 0.742188 1.53906 0.570312ZM13.5625 0.78125C13.6875 0.640625 13.8203 0.5625 13.9609 0.546875C14.1172 0.515625 14.4844 0.5 15.0625 0.5C16.125 0.5 16.7109 0.734375 16.8203 1.20312C16.9297 1.65625 16.9844 4.0625 16.9844 8.42188C16.9844 11.3594 16.9922 13.3125 17.0078 14.2812C17.0234 15.2344 17.0625 15.7891 17.125 15.9453C17.1562 16.0078 17.4453 16.3828 17.9922 17.0703C18.5391 17.7578 19.1562 18.5312 19.8438 19.3906C20.5469 20.25 21.2344 21.0781 21.9062 21.875C22.5781 22.6875 23.0625 23.2578 23.3594 23.5859C23.5312 23.7734 23.6328 23.9453 23.6641 24.1016C23.6953 24.2734 23.6406 24.3828 23.5 24.4297C23.2656 24.5234 22.5547 24.5469 21.3672 24.5C20.1953 24.4688 19.5156 24.3984 19.3281 24.2891C19.2188 24.2422 18.8828 23.8984 18.3203 23.2578C17.7422 22.6172 17.1172 21.9062 16.4453 21.125C15.7891 20.3438 15.1797 19.5938 14.6172 18.875C14.0391 18.1719 13.6953 17.7188 13.5859 17.5156L13.3516 17.0703L13.2812 1.0625L13.5625 0.78125ZM24.9297 0.757812C25.1172 0.554688 25.6328 0.460938 26.4766 0.476562C27.3203 0.476562 27.8438 0.578125 28.0469 0.78125L28.3047 1.08594L28.4219 20L28.75 20.4688C29.1719 21.0938 29.4922 21.4297 29.7109 21.4766C29.9453 21.5078 30.25 21.2891 30.625 20.8203C31.0156 20.3359 31.2344 19.7266 31.2812 18.9922C31.3438 18.2422 31.375 15.3359 31.375 10.2734C31.375 4.78906 31.4219 1.78906 31.5156 1.27344C31.6094 0.757812 32.1562 0.5 33.1562 0.5C33.7812 0.5 34.1641 0.515625 34.3047 0.546875C34.4609 0.5625 34.6016 0.640625 34.7266 0.78125L35.0078 1.08594V11.0234C35.0078 16.8047 34.9688 20.0312 34.8906 20.7031C34.8125 21.3594 34.3906 22.1406 33.625 23.0469C33 23.7812 32.5391 24.2031 32.2422 24.3125C31.9453 24.4375 31.1328 24.5 29.8047 24.5C28.4922 24.5 27.6797 24.4375 27.3672 24.3125C27.0703 24.1875 26.5938 23.7266 25.9375 22.9297C25.25 22.0859 24.8672 21.3203 24.7891 20.6328C24.7109 19.9297 24.6719 16.7109 24.6719 10.9766V1.01562L24.9297 0.757812ZM41.7812 0.710938C41.9688 0.632812 42.3125 0.570312 42.8125 0.523438C43.3125 0.492187 43.8281 0.476562 44.3594 0.476562C44.9062 0.476562 45.3984 0.5 45.8359 0.546875C46.2734 0.578125 46.5156 0.640625 46.5625 0.734375C46.6406 0.890625 46.5703 1.09375 46.3516 1.34375C46.1328 1.57812 45.3203 2.32812 43.9141 3.59375C42.9922 4.4375 42.3281 5.0625 41.9219 5.46875C41.5312 5.85937 41.3359 6.10156 41.3359 6.19531C41.3203 6.32031 41.4609 6.54688 41.7578 6.875C42.0703 7.20312 42.7578 7.86719 43.8203 8.86719C45.4141 10.3828 46.3594 11.3047 46.6562 11.6328C46.9531 11.9609 47.1016 12.25 47.1016 12.5C47.1016 12.7031 46.7344 13.1953 46 13.9766C45.2656 14.7422 43.9688 16 42.1094 17.75C41.4844 18.3281 41.2266 18.7344 41.3359 18.9688C41.4609 19.2031 42.3359 20.0391 43.9609 21.4766C45.7266 23.0547 46.625 23.9531 46.6562 24.1719C46.6875 24.3906 45.9141 24.5 44.3359 24.5C43.4141 24.5 42.7891 24.4844 42.4609 24.4531C42.1484 24.4375 41.9062 24.3906 41.7344 24.3125C41.625 24.2656 41.3047 24.0078 40.7734 23.5391C40.2266 23.0859 39.6328 22.5859 38.9922 22.0391C38.3672 21.4766 37.7891 20.9453 37.2578 20.4453C36.7109 19.9453 36.3828 19.625 36.2734 19.4844C35.9766 19.125 36.0469 18.6719 36.4844 18.125C36.9375 17.5781 38.5 16.0391 41.1719 13.5078C41.7344 12.9766 41.9453 12.5703 41.8047 12.2891C41.6641 12.0078 40.7344 11.0547 39.0156 9.42969C37.3594 7.85156 36.4141 6.89062 36.1797 6.54688C35.9453 6.1875 36.0078 5.8125 36.3672 5.42188C36.5859 5.1875 36.9688 4.82031 37.5156 4.32031C38.0781 3.82031 38.6562 3.3125 39.25 2.79688C39.8438 2.28125 40.3906 1.8125 40.8906 1.39062C41.3906 0.984375 41.6875 0.757812 41.7812 0.710938ZM60.7656 0.640625C60.8281 0.59375 61.0234 0.5625 61.3516 0.546875C61.6797 0.515625 62.1641 0.5 62.8047 0.5C64.0391 0.5 64.8438 0.640625 65.2188 0.921875C65.5938 1.1875 66.6953 2.44531 68.5234 4.69531C70.2109 6.75781 71.2031 8 71.5 8.42188C71.7969 8.82812 71.9453 9.14844 71.9453 9.38281C71.9453 9.66406 71.7891 10.0156 71.4766 10.4375C71.1797 10.8594 70.0625 12.2656 68.125 14.6562C65.875 17.4375 64.6328 19.0312 64.3984 19.4375C64.1797 19.8281 64.0625 20.6562 64.0469 21.9219C64.0156 23.2656 63.9375 24.0312 63.8125 24.2188C63.6875 24.4062 63.1797 24.5 62.2891 24.5C61.1953 24.5 60.5938 24.1797 60.4844 23.5391C60.3906 22.8984 60.3438 19.2188 60.3438 12.5C60.3438 6.70312 60.3594 3.32031 60.3906 2.35156C60.4219 1.38281 60.5469 0.8125 60.7656 0.640625ZM66.0859 7.57812C65.1328 6.40625 64.5703 5.72656 64.3984 5.53906C64.2266 5.35156 64.125 5.3125 64.0938 5.42188C64.0625 5.48437 64.0469 5.94531 64.0469 6.80469C64.0312 7.67969 64.0312 8.61719 64.0469 9.61719C64.0625 10.6172 64.0859 11.5391 64.1172 12.3828C64.1328 13.2109 64.1562 13.625 64.1875 13.625C64.2188 13.6406 64.375 13.4844 64.6562 13.1562C64.9531 12.8281 65.2734 12.4531 65.6172 12.0312C65.9766 11.5938 66.3203 11.1719 66.6484 10.7656C66.9766 10.3594 67.1875 10.0703 67.2812 9.89844C67.4219 9.67969 67.4297 9.46094 67.3047 9.24219C67.1953 9.00781 66.7891 8.45312 66.0859 7.57812ZM73.5625 0.78125L73.6328 0.5H75.4609C76.6953 0.5 77.5 0.632812 77.875 0.898438C78.25 1.14844 79.2891 2.3125 80.9922 4.39062L83.7812 7.76562V8.84375L80.7109 12.5469C79.7109 13.7812 78.9453 14.7344 78.4141 15.4062C77.8984 16.0625 77.6406 16.4375 77.6406 16.5312C77.6406 16.6094 77.875 16.9531 78.3438 17.5625C78.8125 18.1719 79.5078 19.0234 80.4297 20.1172C82.4141 22.5078 83.4375 23.8359 83.5 24.1016C83.5625 24.3672 82.8984 24.5 81.5078 24.5C80.2891 24.5 79.5156 24.3906 79.1875 24.1719C78.8594 23.9531 77.9453 22.9453 76.4453 21.1484C74.7891 19.1641 73.8125 17.9688 73.5156 17.5625C73.2188 17.1562 73.0703 16.8047 73.0703 16.5078C73.0703 16.2266 73.1875 15.9141 73.4219 15.5703C73.6719 15.2266 74.625 14.0625 76.2812 12.0781C77.8281 10.2188 78.7109 9.14062 78.9297 8.84375C79.1484 8.54688 79.2188 8.3125 79.1406 8.14062C79.1094 8.0625 78.8125 7.67188 78.25 6.96875C77.7031 6.26562 77.0547 5.46094 76.3047 4.55469C74.8047 2.74219 73.9609 1.71094 73.7734 1.46094C73.5859 1.19531 73.5156 0.96875 73.5625 0.78125ZM87.5781 0.710938C87.7344 0.632812 88.0547 0.578125 88.5391 0.546875C89.0391 0.5 89.5703 0.476562 90.1328 0.476562C90.6953 0.476562 91.2266 0.5 91.7266 0.546875C92.2266 0.578125 92.5547 0.640625 92.7109 0.734375C92.9922 0.875 93.3984 1.25781 93.9297 1.88281C94.4766 2.49219 94.8516 3 95.0547 3.40625L95.3359 4.01562V12.5C95.3359 17.4219 95.2969 20.1875 95.2188 20.7969C95.1406 21.3906 94.7344 22.1328 94 23.0234C93.3906 23.7578 92.9219 24.1875 92.5938 24.3125C92.2812 24.4375 91.5 24.5 90.25 24.5C89.0312 24.5 88.2578 24.4375 87.9297 24.3125C87.6172 24.1875 87.1172 23.7422 86.4297 22.9766C85.6484 22.1172 85.2188 21.3828 85.1406 20.7734C85.0625 20.1484 85.0312 17.3281 85.0469 12.3125L85.0703 3.6875L85.3281 3.26562C85.5469 2.89062 85.9219 2.40625 86.4531 1.8125C86.9844 1.20312 87.3594 0.835938 87.5781 0.710938ZM90.9297 4.0625C90.5859 3.65625 90.3359 3.45312 90.1797 3.45312C90.0234 3.4375 89.7969 3.60937 89.5 3.96875C89.0625 4.46875 88.8203 4.99219 88.7734 5.53906C88.7266 6.08594 88.7031 8.40625 88.7031 12.5V19.8828L89.0312 20.3984C89.4688 21.0391 89.7969 21.3906 90.0156 21.4531C90.25 21.5 90.5625 21.2969 90.9531 20.8438C91.3438 20.3906 91.5625 19.8438 91.6094 19.2031C91.6719 18.5625 91.7031 16.3203 91.7031 12.4766C91.7031 8.63281 91.6719 6.39844 91.6094 5.77344C91.5625 5.13281 91.3359 4.5625 90.9297 4.0625ZM96.7891 0.757812L96.9766 0.5H101.828C104.75 0.5 106.359 0.546875 106.656 0.640625C106.969 0.734375 107.125 1.25 107.125 2.1875C107.125 3.09375 107.047 3.625 106.891 3.78125C106.75 3.9375 106.258 4.03125 105.414 4.0625C104.992 4.09375 104.656 4.125 104.406 4.15625C104.156 4.1875 104.008 4.22656 103.961 4.27344C103.867 4.35156 103.812 4.90625 103.797 5.9375C103.781 6.95313 103.773 9.67969 103.773 14.1172V23.8203L103.188 24.5L100.469 24.4531L99.9766 23.6797V4.41406L99.7188 4.25C99.625 4.1875 99.4766 4.14063 99.2734 4.10938C99.0703 4.07812 98.7656 4.0625 98.3594 4.0625C97.5469 4.0625 97.0547 3.97656 96.8828 3.80469C96.7109 3.61719 96.625 3.09375 96.625 2.23438C96.625 1.76562 96.6328 1.42969 96.6484 1.22656C96.6797 1.00781 96.7266 0.851562 96.7891 0.757812ZM111.016 0.710938C111.172 0.632812 111.492 0.578125 111.977 0.546875C112.477 0.5 113.008 0.476562 113.57 0.476562C114.133 0.476562 114.664 0.5 115.164 0.546875C115.664 0.578125 115.992 0.640625 116.148 0.734375C116.43 0.875 116.836 1.25781 117.367 1.88281C117.914 2.49219 118.289 3 118.492 3.40625L118.773 4.01562V12.5C118.773 17.4219 118.734 20.1875 118.656 20.7969C118.578 21.3906 118.172 22.1328 117.438 23.0234C116.828 23.7578 116.359 24.1875 116.031 24.3125C115.719 24.4375 114.938 24.5 113.688 24.5C112.469 24.5 111.695 24.4375 111.367 24.3125C111.055 24.1875 110.555 23.7422 109.867 22.9766C109.086 22.1172 108.656 21.3828 108.578 20.7734C108.5 20.1484 108.469 17.3281 108.484 12.3125L108.508 3.6875L108.766 3.26562C108.984 2.89062 109.359 2.40625 109.891 1.8125C110.422 1.20312 110.797 0.835938 111.016 0.710938ZM114.367 4.0625C114.023 3.65625 113.773 3.45312 113.617 3.45312C113.461 3.4375 113.234 3.60937 112.938 3.96875C112.5 4.46875 112.258 4.99219 112.211 5.53906C112.164 6.08594 112.141 8.40625 112.141 12.5V19.8828L112.469 20.3984C112.906 21.0391 113.234 21.3906 113.453 21.4531C113.688 21.5 114 21.2969 114.391 20.8438C114.781 20.3906 115 19.8438 115.047 19.2031C115.109 18.5625 115.141 16.3203 115.141 12.4766C115.141 8.63281 115.109 6.39844 115.047 5.77344C115 5.13281 114.773 4.5625 114.367 4.0625ZM122.781 0.734375C123 0.625 123.242 0.5625 123.508 0.546875C123.773 0.515625 124.43 0.507813 125.477 0.523438L127.727 0.546875L128.148 0.875C128.914 1.46875 129.508 2.15625 129.93 2.9375C130.352 3.70312 130.562 4.50781 130.562 5.35156C130.562 6.10156 130.484 6.53906 130.328 6.66406C130.172 6.78906 129.641 6.85156 128.734 6.85156C127.859 6.85156 127.328 6.8125 127.141 6.73438C126.953 6.64062 126.859 6.36719 126.859 5.91406C126.859 5.47656 126.672 4.95312 126.297 4.34375C125.922 3.71875 125.594 3.40625 125.312 3.40625C125.219 3.40625 125.016 3.57813 124.703 3.92188C124.406 4.25 124.188 4.54687 124.047 4.8125C123.984 4.92187 123.938 5.75 123.906 7.29688C123.875 8.82812 123.852 10.5156 123.836 12.3594C123.836 14.1875 123.844 15.8828 123.859 17.4453C123.875 18.9922 123.914 19.8438 123.977 20C124.039 20.1719 124.219 20.4453 124.516 20.8203C124.828 21.1953 125.062 21.4219 125.219 21.5C125.469 21.625 125.805 21.375 126.227 20.75C126.648 20.125 126.859 19.5625 126.859 19.0625C126.859 18.6406 126.953 18.3828 127.141 18.2891C127.344 18.1953 127.875 18.1484 128.734 18.1484C129.656 18.1484 130.195 18.2188 130.352 18.3594C130.508 18.5 130.57 18.9766 130.539 19.7891C130.508 20.5391 130.414 21.0938 130.258 21.4531C130.102 21.8125 129.727 22.3516 129.133 23.0703C128.523 23.7891 128.062 24.2031 127.75 24.3125C127.438 24.4375 126.617 24.5 125.289 24.5C124.32 24.5 123.695 24.4844 123.414 24.4531C123.148 24.4375 122.938 24.3828 122.781 24.2891C122.562 24.1641 122.18 23.7891 121.633 23.1641C121.102 22.5547 120.734 22.0703 120.531 21.7109L120.227 21.1953L120.156 4.03906L120.438 3.47656C120.625 3.05469 120.992 2.53125 121.539 1.90625C122.086 1.26562 122.5 0.875 122.781 0.734375ZM134.453 0.710938C134.609 0.632812 134.93 0.578125 135.414 0.546875C135.914 0.5 136.445 0.476562 137.008 0.476562C137.57 0.476562 138.102 0.5 138.602 0.546875C139.102 0.578125 139.43 0.640625 139.586 0.734375C139.867 0.875 140.273 1.25781 140.805 1.88281C141.352 2.49219 141.727 3 141.93 3.40625L142.211 4.01562V12.5C142.211 17.4219 142.172 20.1875 142.094 20.7969C142.016 21.3906 141.609 22.1328 140.875 23.0234C140.266 23.7578 139.797 24.1875 139.469 24.3125C139.156 24.4375 138.375 24.5 137.125 24.5C135.906 24.5 135.133 24.4375 134.805 24.3125C134.492 24.1875 133.992 23.7422 133.305 22.9766C132.523 22.1172 132.094 21.3828 132.016 20.7734C131.938 20.1484 131.906 17.3281 131.922 12.3125L131.945 3.6875L132.203 3.26562C132.422 2.89062 132.797 2.40625 133.328 1.8125C133.859 1.20312 134.234 0.835938 134.453 0.710938ZM137.805 4.0625C137.461 3.65625 137.211 3.45312 137.055 3.45312C136.898 3.4375 136.672 3.60937 136.375 3.96875C135.938 4.46875 135.695 4.99219 135.648 5.53906C135.602 6.08594 135.578 8.40625 135.578 12.5V19.8828L135.906 20.3984C136.344 21.0391 136.672 21.3906 136.891 21.4531C137.125 21.5 137.438 21.2969 137.828 20.8438C138.219 20.3906 138.438 19.8438 138.484 19.2031C138.547 18.5625 138.578 16.3203 138.578 12.4766C138.578 8.63281 138.547 6.39844 138.484 5.77344C138.438 5.13281 138.211 4.5625 137.805 4.0625ZM143.875 0.78125C144 0.640625 144.133 0.5625 144.273 0.546875C144.43 0.515625 144.797 0.5 145.375 0.5C146.438 0.5 147.023 0.734375 147.133 1.20312C147.242 1.65625 147.297 4.0625 147.297 8.42188C147.297 11.3594 147.305 13.3125 147.32 14.2812C147.336 15.2344 147.375 15.7891 147.438 15.9453C147.469 16.0078 147.758 16.3828 148.305 17.0703C148.852 17.7578 149.469 18.5312 150.156 19.3906C150.859 20.25 151.547 21.0781 152.219 21.875C152.891 22.6875 153.375 23.2578 153.672 23.5859C153.844 23.7734 153.945 23.9453 153.977 24.1016C154.008 24.2734 153.953 24.3828 153.812 24.4297C153.578 24.5234 152.867 24.5469 151.68 24.5C150.508 24.4688 149.828 24.3984 149.641 24.2891C149.531 24.2422 149.195 23.8984 148.633 23.2578C148.055 22.6172 147.43 21.9062 146.758 21.125C146.102 20.3438 145.492 19.5938 144.93 18.875C144.352 18.1719 144.008 17.7188 143.898 17.5156L143.664 17.0703L143.594 1.0625L143.875 0.78125Z" fill="#68C3C4"/>
</svg>
