<svg width="202" height="165" viewBox="0 0 202 165" fill="none" xmlns="http://www.w3.org/2000/svg">
<g clip-path="url(#clip0_923_1996)">
<path d="M178 90.8V56.71H167.97V44.55C167.35 44.67 166.71 44.81 166.06 44.94C165.07 45.14 164.08 45.34 163.1 45.53C161.94 43.09 160.65 40.72 159.24 38.45L160.2 37.97L160.31 37.91C160.47 37.84 160.61 37.75 160.75 37.64V37.62C161.99 36.64 162.2 34.86 161.23 33.63C160.68 32.91 159.84 32.53 158.99 32.53C158.38 32.53 157.77 32.73 157.24 33.13H157.23C157.09 33.25 156.95 33.37 156.85 33.5L156.75 33.61L156.32 34.11C154.3 31.33 152.1 28.72 149.72 26.28C149.72 26.28 149.717 26.2767 149.71 26.27C149.64 26.2 149.58 26.13 149.51 26.07C149.45 26.02 149.39 25.96 149.34 25.9C147.55 23.99 147.61 20.62 149.61 18.04C148.21 19.85 146.21 20.83 144.34 20.83C144.12 20.83 143.91 20.82 143.7 20.79V20.78C139.2 17.12 134.25 14.04 128.95 11.64L129.77 10.13L129.83 10.02C129.91 9.87 129.97 9.71 130.02 9.54V9.52C130.47 8.02 129.63 6.44 128.12 5.98C127.85 5.89 127.57 5.85 127.29 5.85C126.08 5.85 124.96 6.64 124.57 7.86V7.88C124.51 8.05 124.47 8.23 124.46 8.39L124.44 8.54L124.33 9.75C118.07 7.45 111.4 6.07 104.46 5.77C102.71 4.73 101.5 2.53 101.5 0C101.5 1.78 100.91 3.38 99.95 4.55C99.54 5.05 99.06 5.47 98.53 5.78H98.52C91.35 6.11 84.47 7.59 78.03 10.05L77.85 8.48L77.83 8.36C77.81 8.19 77.77 8.03 77.72 7.86V7.84C77.31 6.64 76.2 5.89 75.01 5.89C74.72 5.89 74.42 5.93 74.12 6.03C72.63 6.52 71.81 8.11 72.29 9.61V9.63C72.35 9.8 72.42 9.97 72.5 10.11L72.57 10.24L73.55 11.96C68.6 14.27 63.97 17.17 59.73 20.59C59.35 20.68 58.95 20.73 58.54 20.73C56.75 20.73 54.82 19.83 53.42 18.18C55.25 20.34 55.64 23.15 54.59 25.15C50.98 28.69 47.73 32.64 44.93 36.91L42.8 34.51L42.71 34.42C42.6 34.29 42.48 34.18 42.33 34.07H42.32C41.81 33.68 41.21 33.5 40.62 33.5C39.75 33.5 38.9 33.89 38.34 34.64C37.39 35.89 37.64 37.67 38.89 38.62C39.04 38.74 39.19 38.84 39.34 38.91L39.47 38.97L42.7 40.5C41.76 42.14 40.88 43.81 40.07 45.53C39.08 45.34 38.1 45.14 37.1 44.94C36.45 44.81 35.81 44.67 35.18 44.55V56.71H24V90.8H23.99C23.69 98.73 15.77 105.08 6.05004 105.09C6.04004 105.24 6.04004 105.4 6.04004 105.56C15.96 105.56 24 112.16 24 120.32V155.71H74.5V164.23H74.67L81.5 157.39L88.33 164.23H88.5V155.71H178V120.32C178 112.16 186.05 105.56 195.97 105.56C186.05 105.56 178 98.95 178 90.8ZM43.61 40.93L48.82 43.4L48.87 43.43L48.92 43.45C49.01 43.48 49.09 43.49 49.18 43.49C49.29 43.49 49.4 43.47 49.49 43.42C49.57 43.39 49.64 43.33 49.69 43.27L49.78 43.15C49.83 43.08 49.86 43 49.87 42.92C49.91 42.71 49.86 42.48 49.71 42.31L45.6 37.68C48.47 33.28 51.81 29.23 55.54 25.61C55.84 25.56 56.14 25.53 56.45 25.53C58.25 25.53 60.17 26.42 61.58 28.09C61.63 28.06 61.67 28.02 61.71 27.98C59.98 25.94 59.52 23.32 60.35 21.35H60.36C64.56 17.98 69.14 15.11 74.03 12.82L77.68 19.23L77.7 19.28L77.73 19.33C77.84 19.49 78.02 19.6 78.22 19.63C78.26 19.64 78.29 19.64 78.32 19.64C78.37 19.64 78.43 19.63 78.47 19.62L78.61 19.58C78.69 19.54 78.76 19.5 78.82 19.43C78.97 19.28 79.06 19.07 79.03 18.85L78.14 11.08C84.32 8.68 90.94 7.21 97.82 6.82C99.86 7.71 101.32 10.08 101.32 12.87H101.49C101.49 10.06 102.98 7.67 105.05 6.8C111.74 7.16 118.18 8.53 124.22 10.77L123.47 18.84V18.89L123.45 18.95C123.45 19.15 123.54 19.34 123.68 19.48C123.74 19.54 123.81 19.58 123.89 19.61L124.03 19.66C124.03 19.66 124.13 19.67 124.18 19.67C124.22 19.67 124.25 19.67 124.28 19.66C124.49 19.63 124.69 19.5 124.79 19.3L128.47 12.52C133.49 14.79 138.2 17.68 142.5 21.11V21.12C143.6 23.08 143.31 25.89 141.59 28.11C141.63 28.14 141.67 28.18 141.72 28.22C143.11 26.42 145.12 25.43 146.98 25.43C147.14 25.43 147.3 25.43 147.46 25.45C150.46 28.34 153.2 31.5 155.65 34.9L150.04 41.49L150 41.53L149.97 41.58C149.85 41.74 149.81 41.95 149.85 42.14C149.86 42.22 149.9 42.3 149.95 42.38L150.03 42.49C150.09 42.55 150.16 42.6 150.24 42.63C150.34 42.68 150.45 42.71 150.56 42.71C150.66 42.71 150.77 42.68 150.87 42.63L158.33 38.9C159.7 41.09 160.95 43.37 162.08 45.72C157.4 46.6 152.87 47.32 148.52 47.93C139.18 31.71 122.31 20.7 102.97 20.2C102.92 19.42 102.27 18.81 101.48 18.81C100.69 18.81 100.04 19.43 99.99 20.21C80.73 20.78 63.93 31.77 54.63 47.93C50.28 47.32 45.75 46.61 41.07 45.72C41.85 44.08 42.7 42.49 43.6 40.93H43.61ZM148.26 47.97C132.87 50.1 119.86 50.85 111.41 52.54C105.64 50.1 101.49 43.42 101.49 35.56C101.49 43.39 97.38 50.06 91.63 52.51C83.17 50.84 70.22 50.09 54.9 47.97C64.18 31.92 80.87 21.03 100 20.46C100.07 21.22 100.71 21.81 101.49 21.81C102.27 21.81 102.91 21.22 102.98 20.45C122.19 20.96 138.96 31.87 148.26 47.97ZM74.5 152.71H26.99V59.71H37.18V141.57C37.79 141.69 38.41 141.82 39.02 141.94C52.22 144.64 64.41 145.79 74.5 146.75V152.71ZM88.5 152.71V148.29C94.52 149.19 98.82 150.44 100.84 152.71H88.5ZM101.99 151.62C101.88 151.72 101.77 151.83 101.68 151.94C101.65 151.97 101.62 152 101.59 152.03L101.49 151.91H101.48L101.47 151.9C101.38 151.8 101.28 151.7 101.18 151.62C101.12 151.55 101.05 151.49 100.99 151.44C98.6 149.3 94.37 148.13 88.5 147.27C88.34 147.24 88.17 147.22 88 147.19C87.84 147.17 87.67 147.15 87.5 147.13C84.03 146.65 80.01 146.26 75.5 145.83C75.33 145.82 75.17 145.8 75 145.78C74.84 145.77 74.67 145.75 74.5 145.74C74.47 145.74 74.45 145.73 74.42 145.73C64.56 144.8 52.3 143.64 39.22 140.96C38.91 140.9 38.61 140.84 38.3 140.77C38.26 140.77 38.22 140.77 38.18 140.75V47.77C38.41 47.81 38.63 47.86 38.84 47.9C38.89 47.91 38.93 47.92 38.98 47.93C39.32 48 39.65 48.07 39.99 48.13C44.56 49.05 49.01 49.79 53.29 50.42C53.37 50.43 53.46 50.44 53.54 50.45C61.25 51.59 68.39 52.34 74.59 52.99C81.82 53.75 88.23 54.43 92.95 55.47C93.43 55.58 93.9 55.69 94.34 55.8H94.35C94.78 55.91 95.18 56.02 95.57 56.14C96.17 56.32 96.72 56.51 97.23 56.71C97.64 56.87 98.01 57.03 98.36 57.21C98.68 57.37 98.98 57.54 99.24 57.71C99.72 58.02 100.11 58.35 100.4 58.71C100.53 58.85 100.64 59 100.73 59.15L100.77 59.21L100.99 59.58L101.07 59.71L101.18 59.89L101.49 60.39L101.58 60.54L101.69 60.36L101.99 59.88L102.09 59.71L102.18 59.57L102.4 59.21L102.44 59.15C102.53 59 102.64 58.85 102.77 58.71C103.06 58.35 103.46 58.02 103.94 57.71C104.21 57.53 104.5 57.36 104.82 57.21C105.16 57.03 105.54 56.87 105.94 56.71C106.18 56.62 106.42 56.53 106.68 56.44C107.06 56.31 107.47 56.18 107.89 56.06C108.31 55.93 108.76 55.82 109.22 55.7C114 54.53 120.82 53.81 128.58 52.99C134.78 52.34 141.91 51.59 149.61 50.46C149.7 50.44 149.79 50.43 149.88 50.42C154.16 49.79 158.62 49.04 163.19 48.12C163.52 48.06 163.85 47.99 164.18 47.92C164.22 47.92 164.26 47.91 164.3 47.9C164.53 47.86 164.75 47.81 164.97 47.77V140.75C164.97 140.75 164.9 140.77 164.86 140.77C164.55 140.84 164.24 140.9 163.93 140.96C150.86 143.64 138.6 144.8 128.74 145.73C115.33 146.99 106.17 147.86 102.18 151.45C102.11 151.5 102.05 151.56 101.99 151.62ZM174.99 152.71H102.32C108.21 146.08 133.46 148.23 164.13 141.94C164.74 141.82 165.36 141.69 165.97 141.57V59.71H174.99V152.71Z" fill="#68C3C4"/>
<path d="M200.5 107.06C201.328 107.06 202 106.388 202 105.56C202 104.732 201.328 104.06 200.5 104.06C199.672 104.06 199 104.732 199 105.56C199 106.388 199.672 107.06 200.5 107.06Z" fill="#68C3C4"/>
<path d="M1.5 107.06C2.32843 107.06 3 106.388 3 105.56C3 104.732 2.32843 104.06 1.5 104.06C0.671573 104.06 0 104.732 0 105.56C0 106.388 0.671573 107.06 1.5 107.06Z" fill="#68C3C4"/>
<path d="M120.19 99.5499C118.59 100.92 116.34 101.76 113.84 101.76C113.79 98.7499 112.7 95.9899 110.93 93.8199C110.33 93.0699 109.64 92.3799 108.88 91.7799C106.67 90.0399 103.87 88.9999 100.84 88.9999C100.84 86.4899 101.7 84.2299 103.08 82.6299C106.86 83.0599 110.31 84.5799 113.11 86.8499C115.13 86.6299 117.2 85.6599 118.89 83.9699C117.2 85.6599 116.22 87.7199 116 89.7399C118.24 92.4899 119.72 95.8599 120.19 99.5499Z" fill="#68C3C4"/>
<path d="M100.61 88.9999C100.52 88.9999 100.44 88.9999 100.35 89.0099C100.28 89.0099 100.22 89.0099 100.15 89.0199C100.05 89.0199 99.94 89.0199 99.84 89.0399C99.78 89.0399 99.71 89.0499 99.65 89.0599C97.04 89.2899 94.67 90.2999 92.73 91.8399C91.95 92.4499 91.25 93.1699 90.64 93.9499C88.88 96.1599 87.84 98.9499 87.84 102C85.33 102 83.07 101.14 81.47 99.7599C81.9 95.9399 83.45 92.4399 85.78 89.6199C85.53 87.6599 84.57 85.6299 82.93 83.9999C84.59 85.6399 86.61 86.5899 88.58 86.8399C91.34 84.5999 94.71 83.1199 98.4 82.6499C98.89 83.2199 99.31 83.8799 99.65 84.5999C99.72 84.7499 99.79 84.8999 99.84 85.0599C99.97 85.3399 100.07 85.6299 100.15 85.9299C100.23 86.1699 100.3 86.4099 100.35 86.6599C100.52 87.3999 100.61 88.1899 100.61 88.9999Z" fill="#68C3C4"/>
<path d="M115.9 114.38C116.08 116.46 117.07 118.64 118.81 120.38C117.04 118.61 114.84 117.61 112.74 117.45C110.29 119.34 107.37 120.65 104.21 121.21C102.53 122.42 101.29 124.43 100.84 126.82C100.72 127.46 100.66 128.12 100.66 128.8H100.65C100.57 128.8 100.5 128.8 100.43 128.79C100.43 128.33 100.4 127.88 100.34 127.44C100.3 127.07 100.23 126.7 100.15 126.34C100.06 125.98 99.96 125.64 99.84 125.3C99.78 125.14 99.72 124.98 99.65 124.82C98.99 123.22 97.94 121.9 96.64 121.04C93.76 120.4 91.11 119.14 88.86 117.37C86.76 117.54 84.58 118.53 82.83 120.29C84.57 118.54 85.54 116.4 85.74 114.32C83.48 111.55 81.95 108.17 81.5 104.44C83.1 103.07 85.35 102.23 87.84 102.23C87.91 105.35 89.05 108.2 90.92 110.39C91.51 111.1 92.17 111.73 92.89 112.29C94.79 113.76 97.11 114.7 99.65 114.93C99.71 114.94 99.78 114.95 99.84 114.95C99.87 114.96 99.89 114.96 99.92 114.96C99.99 114.96 100.07 114.96 100.15 114.98C100.21 114.98 100.27 114.98 100.34 114.99C100.44 114.99 100.54 115 100.65 115H100.84C101.04 115 101.22 115 101.4 114.98C104.24 114.85 106.82 113.84 108.9 112.2C109.6 111.63 110.25 111 110.84 110.32C112.71 108.05 113.84 105.15 113.84 102C116.35 102 118.61 102.85 120.21 104.23C119.78 108.07 118.24 111.55 115.9 114.38Z" fill="#68C3C4"/>
<path d="M100.62 96.7998C100.62 96.9798 100.63 97.1598 100.65 97.3298V96.7998H100.62ZM100.62 96.7998C100.62 96.9798 100.63 97.1598 100.65 97.3298V96.7998H100.62ZM100.62 96.7998C100.62 96.9798 100.63 97.1598 100.65 97.3298V96.7998H100.62ZM100.62 96.7998C100.62 96.9798 100.63 97.1598 100.65 97.3298V96.7998H100.62ZM100.62 96.7998C100.62 96.9798 100.63 97.1598 100.65 97.3298V96.7998H100.62ZM100.62 96.7998C100.62 96.9798 100.63 97.1598 100.65 97.3298V96.7998H100.62ZM100.62 96.7998C100.62 96.9798 100.63 97.1598 100.65 97.3298V96.7998H100.62ZM100.62 96.7998C100.62 96.9798 100.63 97.1598 100.65 97.3298V96.7998H100.62ZM100.62 96.7998C100.62 96.9798 100.63 97.1598 100.65 97.3298V96.7998H100.62ZM100.62 96.7998C100.62 96.9798 100.63 97.1598 100.65 97.3298V96.7998H100.62ZM100.62 96.7998C100.62 96.9798 100.63 97.1598 100.65 97.3298V96.7998H100.62ZM100.62 96.7998C100.62 96.9798 100.63 97.1598 100.65 97.3298V96.7998H100.62ZM100.62 96.7998C100.62 96.9798 100.63 97.1598 100.65 97.3298V96.7998H100.62ZM100.62 96.7998C100.62 96.9798 100.63 97.1598 100.65 97.3298V96.7998H100.62ZM100.62 96.7998C100.62 96.9798 100.63 97.1598 100.65 97.3298V96.7998H100.62ZM100.62 96.7998C100.62 96.9798 100.63 97.1598 100.65 97.3298V96.7998H100.62ZM100.62 96.7998C100.62 96.9798 100.63 97.1598 100.65 97.3298V96.7998H100.62ZM100.62 96.7998C100.62 96.9798 100.63 97.1598 100.65 97.3298V96.7998H100.62ZM100.62 96.7998C100.62 96.9798 100.63 97.1598 100.65 97.3298V96.7998H100.62ZM100.62 96.7998C100.62 96.9798 100.63 97.1598 100.65 97.3298V96.7998H100.62ZM100.62 96.7998C100.62 96.9798 100.63 97.1598 100.65 97.3298V96.7998H100.62ZM100.62 96.7998C100.62 96.9798 100.63 97.1598 100.65 97.3298V96.7998H100.62ZM100.62 96.7998C100.62 96.9798 100.63 97.1598 100.65 97.3298V96.7998H100.62ZM100.62 96.7998C100.62 96.9798 100.63 97.1598 100.65 97.3298V96.7998H100.62ZM100.62 96.7998C100.62 96.9798 100.63 97.1598 100.65 97.3298V96.7998H100.62ZM100.62 96.7998C100.62 96.9798 100.63 97.1598 100.65 97.3298V96.7998H100.62ZM100.62 96.7998C100.62 96.9798 100.63 97.1598 100.65 97.3298V96.7998H100.62ZM100.62 96.7998C100.62 96.9798 100.63 97.1598 100.65 97.3298V96.7998H100.62ZM100.62 96.7998C100.62 96.9798 100.63 97.1598 100.65 97.3298V96.7998H100.62ZM100.62 96.7998C100.62 96.9798 100.63 97.1598 100.65 97.3298V96.7998H100.62ZM100.62 96.7998C100.62 96.9798 100.63 97.1598 100.65 97.3298V96.7998H100.62ZM100.62 96.7998C100.62 96.9798 100.63 97.1598 100.65 97.3298V96.7998H100.62ZM100.62 96.7998C100.62 96.9798 100.63 97.1598 100.65 97.3298V96.7998H100.62ZM100.62 96.7998C100.62 96.9798 100.63 97.1598 100.65 97.3298V96.7998H100.62ZM100.62 96.7998C100.62 96.9798 100.63 97.1598 100.65 97.3298V96.7998H100.62ZM100.62 96.7998C100.62 96.9798 100.63 97.1598 100.65 97.3298V96.7998H100.62ZM100.62 96.7998C100.62 96.9798 100.63 97.1598 100.65 97.3298V96.7998H100.62ZM100.62 96.7998C100.62 96.9798 100.63 97.1598 100.65 97.3298V96.7998H100.62ZM100.62 96.7998C100.62 96.9798 100.63 97.1598 100.65 97.3298V96.7998H100.62ZM100.62 96.7998C100.62 96.9798 100.63 97.1598 100.65 97.3298V96.7998H100.62ZM100.62 96.7998C100.62 96.9798 100.63 97.1598 100.65 97.3298V96.7998H100.62ZM100.62 96.7998C100.62 96.9798 100.63 97.1598 100.65 97.3298V96.7998H100.62ZM100.62 96.7998C100.62 96.9798 100.63 97.1598 100.65 97.3298V96.7998H100.62ZM100.62 96.7998C100.62 96.9798 100.63 97.1598 100.65 97.3298V96.7998H100.62ZM100.62 96.7998C100.62 96.9798 100.63 97.1598 100.65 97.3298V96.7998H100.62ZM100.62 96.7998C100.62 96.9798 100.63 97.1598 100.65 97.3298V96.7998H100.62ZM100.62 96.7998C100.62 96.9798 100.63 97.1598 100.65 97.3298V96.7998H100.62Z" fill="#68C3C4"/>
<path d="M100.86 90.2998H100.84C100.78 90.2998 100.71 90.2998 100.65 90.3098C100.55 90.2998 100.45 90.3098 100.35 90.3198C100.28 90.3098 100.21 90.3198 100.15 90.3298C100.05 90.3298 99.9401 90.3298 99.8401 90.3498C99.7801 90.3498 99.7202 90.3598 99.6502 90.3598C93.7602 90.9698 89.1602 95.9498 89.1602 102C89.1602 108.05 93.7602 113.03 99.6502 113.64C99.7202 113.64 99.7801 113.65 99.8401 113.65C99.9401 113.67 100.05 113.67 100.15 113.67C100.21 113.68 100.27 113.69 100.34 113.68C100.44 113.69 100.54 113.7 100.65 113.69C100.71 113.7 100.78 113.7 100.84 113.7H100.86C107.32 113.7 112.56 108.46 112.56 102C112.56 95.5398 107.32 90.2998 100.86 90.2998ZM100.84 105.69C100.75 106 100.68 106.33 100.65 106.67C100.63 106.84 100.62 107.02 100.62 107.2H100.45C100.45 106.84 100.41 106.49 100.34 106.15C100.3 105.91 100.23 105.68 100.15 105.46C100.06 105.21 99.9601 104.97 99.8401 104.74C99.7801 104.63 99.7202 104.52 99.6502 104.42C98.7602 103.01 97.2102 102.06 95.4202 102C96.8602 102 98.1602 101.41 99.1002 100.47C99.3002 100.27 99.4902 100.05 99.6502 99.8198C99.7202 99.7298 99.7901 99.6298 99.8401 99.5298C99.9601 99.3498 100.07 99.1498 100.15 98.9498C100.23 98.7898 100.29 98.6298 100.35 98.4698C100.52 97.9498 100.62 97.3898 100.62 96.7998H100.65V97.3298C100.68 97.6598 100.75 97.9898 100.84 98.2998C101.49 100.44 103.47 102 105.82 102C103.47 102 101.49 103.55 100.84 105.69Z" fill="#68C3C4"/>
<path d="M108.11 76.2499C104.1 76.2499 100.84 80.2099 100.84 85.0999C100.77 85.0999 100.71 85.0899 100.65 85.0899H100.61C100.61 84.2699 100.52 83.4799 100.35 82.7399C100.29 82.4899 100.23 82.2399 100.15 82.0099C100.06 81.6999 99.9601 81.4099 99.8401 81.1299C99.7801 80.9799 99.7201 80.8399 99.6501 80.6999C98.4301 78.1199 96.1801 76.3599 93.5801 76.2599C96.1201 76.2499 98.3601 74.6599 99.6501 72.2499C99.7201 72.1299 99.7901 71.9899 99.8401 71.8599C99.9601 71.6299 100.07 71.3899 100.15 71.1499C100.23 70.9699 100.3 70.7799 100.35 70.5899C100.48 70.1999 100.58 69.7999 100.65 69.3799C100.78 68.7499 100.84 68.0899 100.84 67.4099C100.84 72.2899 104.1 76.2499 108.11 76.2499Z" fill="#68C3C4"/>
<path d="M156.65 102C155.17 102 151.81 102.13 147.85 102.37C147.75 102.38 147.65 102.38 147.55 102.39C138.53 102.94 126.59 104.01 126.59 105.25C126.59 103.45 122.63 102 117.74 102C117.74 101.96 117.74 101.93 117.74 101.89C122.52 101.89 126.42 100.49 126.57 98.75H126.58C126.58 100 138.87 101.09 147.94 101.63C148.04 101.64 148.13 101.64 148.22 101.65C152.01 101.87 155.2 102 156.64 102H156.65Z" fill="#68C3C4"/>
<path d="M83.94 101.89V102C79.06 102 75.1 103.45 75.1 105.25C75.1 103.95 62.02 102.84 52.89 102.32C52.79 102.31 52.69 102.3 52.6 102.3C49.18 102.11 46.36 102 45.03 102C46.31 102 49.01 101.9 52.28 101.71C52.37 101.71 52.47 101.71 52.57 101.7C61.72 101.18 75.1 100.06 75.1 98.75C75.25 100.49 79.15 101.89 83.94 101.89Z" fill="#68C3C4"/>
<path d="M124.36 108.19C124.24 108.33 124.06 108.4 123.88 108.4C123.73 108.4 123.58 108.35 123.46 108.24C123.43 108.21 123.4 108.18 123.38 108.15L123.36 108.13L121.96 106.25C121.96 106.25 121.92 106.15 121.93 106.11C121.94 106.09 121.95 106.07 121.96 106.06L121.98 106.03C121.98 106.03 122.01 106.01 122.03 106C122.05 105.99 122.07 105.99 122.09 105.99C122.11 105.99 122.17 106.01 122.17 106.01L124.18 107.19L124.21 107.21L124.31 107.28C124.57 107.52 124.59 107.92 124.35 108.19H124.36Z" fill="#68C3C4"/>
<path d="M124.26 96.91H124.25C124.25 96.91 124.19 96.96 124.15 96.98H124.13L122 97.99C121.98 98 121.96 98 121.94 98C121.91 98 121.83 97.96 121.82 97.95C121.82 97.95 121.78 97.89 121.78 97.87C121.77 97.83 121.83 97.73 121.83 97.73L123.38 95.99L123.4 95.96L123.49 95.88C123.6 95.8 123.74 95.76 123.87 95.76C124.07 95.76 124.26 95.85 124.39 96.02C124.6 96.3 124.54 96.7 124.26 96.91Z" fill="#68C3C4"/>
<path d="M78.9802 106.25L77.5802 108.13L77.5602 108.15C77.5602 108.15 77.5102 108.21 77.4802 108.24C77.3502 108.35 77.2002 108.4 77.0502 108.4C76.8802 108.4 76.7002 108.33 76.5702 108.19C76.4602 108.06 76.4102 107.91 76.4102 107.76C76.4102 107.58 76.4802 107.41 76.6202 107.28C76.6502 107.25 76.6902 107.23 76.7202 107.21L76.7502 107.19L78.7602 106.02C78.7602 106.02 78.9202 105.95 78.9902 106.04C78.9902 106.04 79.0902 106.13 78.9902 106.25H78.9802Z" fill="#68C3C4"/>
<path d="M79.1599 97.87L79.1199 97.95C79.0699 97.99 79.0199 98 78.9999 98C78.9599 98 78.9499 98 78.9299 97.99L76.8099 96.99L76.6799 96.91C76.3999 96.7 76.3399 96.3 76.5499 96.02C76.6799 95.85 76.8699 95.76 77.0699 95.76C77.1999 95.76 77.3299 95.8 77.4499 95.88L77.5599 95.99L79.1099 97.73C79.1099 97.73 79.1699 97.83 79.1599 97.87Z" fill="#68C3C4"/>
<path d="M101.91 132.05C101.91 132.69 101.45 133.22 100.84 133.32C100.78 133.34 100.72 133.35 100.65 133.35H100.61C100.52 133.35 100.43 133.34 100.34 133.32C100.27 133.31 100.21 133.29 100.15 133.26C100.04 133.22 99.9301 133.17 99.8401 133.1C99.7701 133.05 99.7001 132.99 99.6501 132.92C99.4401 132.69 99.3101 132.39 99.3101 132.05C99.3101 131.76 99.4001 131.49 99.5601 131.28C99.5901 131.24 99.6201 131.21 99.6501 131.18C99.6901 131.13 99.7401 131.08 99.8001 131.03C99.8001 131.03 99.8301 131.01 99.8401 131C99.9301 130.93 100.04 130.88 100.15 130.84C100.21 130.81 100.27 130.79 100.34 130.78C100.43 130.76 100.52 130.75 100.61 130.75H100.65C100.72 130.75 100.78 130.76 100.84 130.78C101.05 130.81 101.24 130.89 101.4 131.02C101.5 131.09 101.58 131.17 101.65 131.27C101.81 131.49 101.91 131.76 101.91 132.05Z" fill="#68C3C4"/>
</g>
<defs>
<clipPath id="clip0_923_1996">
<rect width="202" height="164.23" fill="white"/>
</clipPath>
</defs>
</svg>
